<?xml version="1.0" encoding="UTF-8"?>
<svg id="Layer_2" data-name="Layer 2" xmlns="http://www.w3.org/2000/svg" viewBox="0 0 1719.29 478.85">
  <defs>
    <style>
      .cls-1 {
        fill: #afcfe2;
      }

      .cls-2 {
        fill: #cee4ef;
      }
    </style>
  </defs>
  <g id="Layer_4" data-name="Layer 4">
    <g>
      <path class="cls-1" d="m1719.29,87.62v303.61c0,48.39-39.23,87.62-87.61,87.62H87.62C39.7,478.85.75,440.37.02,392.62c-.02-.46-.02-.92-.02-1.39V87.62C0,39.23,39.23,0,87.62,0h1544.06c48.38,0,87.61,39.23,87.61,87.62Z"/>
      <g>
        <circle class="cls-2" cx="585.11" cy="66.2" r="12.58" transform="translate(386.25 620.45) rotate(-76.72)"/>
        <path class="cls-2" d="m690.94,72.49c0,3.47-2.82,6.29-6.29,6.29s-6.29-2.82-6.29-6.29,2.82-6.29,6.29-6.29,6.29,2.82,6.29,6.29Z"/>
        <circle class="cls-2" cx="698.69" cy="168.29" r="14.04"/>
        <path class="cls-2" d="m617.13,205.69c0,2.54-2.06,4.59-4.59,4.59s-4.59-2.06-4.59-4.59,2.06-4.59,4.59-4.59,4.59,2.06,4.59,4.59Z"/>
        <path class="cls-2" d="m799.55,216.22c0,3.28-2.66,5.94-5.94,5.94s-5.94-2.66-5.94-5.94,2.66-5.94,5.94-5.94,5.94,2.66,5.94,5.94Z"/>
        <circle class="cls-2" cx="827.57" cy="117.82" r="6.94"/>
        <circle class="cls-2" cx="950.21" cy="76.07" r="9.87"/>
        <path class="cls-2" d="m969.25,186.92c0,2.53-2.05,4.59-4.59,4.59s-4.59-2.05-4.59-4.59,2.05-4.59,4.59-4.59,4.59,2.05,4.59,4.59Z"/>
        <path class="cls-2" d="m900.81,256.61c0,2.88-2.33,5.21-5.21,5.21s-5.21-2.33-5.21-5.21,2.33-5.21,5.21-5.21,5.21,2.33,5.21,5.21Z"/>
        <circle class="cls-2" cx="1137.25" cy="144.71" r="9.54" transform="translate(812.25 1244.1) rotate(-80.78)"/>
        <circle class="cls-2" cx="1228.96" cy="63.06" r="9.43" transform="translate(315.37 887.48) rotate(-45)"/>
        <circle class="cls-2" cx="1200.42" cy="193.7" r="6.78"/>
        <circle class="cls-2" cx="1311.96" cy="151.82" r="7.11"/>
        <circle class="cls-2" cx="1452.2" cy="84.8" r="8.73"/>
        <path class="cls-2" d="m1452.2,156.19c0,2.41-1.95,4.36-4.36,4.36s-4.36-1.95-4.36-4.36,1.95-4.36,4.36-4.36,4.36,1.95,4.36,4.36Z"/>
        <path class="cls-2" d="m1394.28,203.39c0,1.27-1.03,2.3-2.3,2.3s-2.3-1.03-2.3-2.3,1.03-2.3,2.3-2.3,2.3,1.03,2.3,2.3Z"/>
        <circle class="cls-2" cx="1058" cy="54" r="9.05" transform="translate(835.22 1089.7) rotate(-80.78)"/>
        <circle class="cls-2" cx="1586.13" cy="173.02" r="4.73"/>
        <circle class="cls-2" cx="1614.36" cy="105.67" r="12.14"/>
      </g>
      <circle class="cls-2" cx="95.94" cy="161.27" r="7.02"/>
      <circle class="cls-2" cx="121.3" cy="158.44" r="4.19"/>
      <path class="cls-2" d="m141.11,151.94c0,2.08-1.68,3.76-3.76,3.76s-3.76-1.68-3.76-3.76,1.68-3.76,3.76-3.76,3.76,1.68,3.76,3.76Z"/>
      <path class="cls-2" d="m117.77,171.17c0,.88-.71,1.59-1.59,1.59s-1.59-.71-1.59-1.59.71-1.59,1.59-1.59,1.59.71,1.59,1.59Z"/>
      <path class="cls-2" d="m140.2,173.75c0,1.43-1.16,2.58-2.58,2.58s-2.58-1.16-2.58-2.58,1.16-2.58,2.58-2.58,2.58,1.16,2.58,2.58Z"/>
      <path class="cls-2" d="m107.88,183.31c0,1.36-1.1,2.46-2.46,2.46s-2.46-1.1-2.46-2.46,1.1-2.46,2.46-2.46,2.46,1.1,2.46,2.46Z"/>
      <path class="cls-2" d="m82.95,171.02c0,1.51-1.22,2.73-2.73,2.73s-2.73-1.22-2.73-2.73,1.22-2.73,2.73-2.73,2.73,1.22,2.73,2.73Z"/>
      <path class="cls-2" d="m1204.96,235.28c-.64-.38-1.37-.64-2.17-.69l-12.64-.82,9.03-4.18c1.75-.81,2.51-2.89,1.7-4.64-.81-1.75-2.89-2.51-4.64-1.7l-20.69,9.57h-.09s-10.47-.86-10.47-.86l23.51-10.88c1.75-.81,2.51-2.89,1.7-4.64l-.19-.42c-.81-1.75-2.89-2.51-4.64-1.7l-27.42,12.69c-.4-.05-.79-.12-1.19-.21-6.49-1.52-10.65-7.72-9.71-14.19l25.37-12.8c1.72-.87,2.41-2.97,1.55-4.69l-.21-.41c-.87-1.72-2.97-2.41-4.69-1.55l-23.13,11.67,5.88-8.81,20.35-10.27c1.72-.87,2.41-2.97,1.55-4.69-.87-1.72-2.97-2.41-4.69-1.55l-8.93,4.51,8.91-12.89c1.54-2.23.98-5.28-1.24-6.82-2.04-1.41-4.76-1.04-6.39.74-.65.37-1.24.87-1.69,1.54l-7.03,10.54.9-9.91c.17-1.92-1.24-3.62-3.16-3.79-1.92-.17-3.62,1.24-3.79,3.16l-2.05,22.7-.05.08-5.98,8.64,2.33-25.8c.17-1.92-1.24-3.62-3.16-3.79l-.46-.04c-1.92-.17-3.62,1.24-3.79,3.16l-3,33.17c-5.35,3.62-12.66,2.69-16.89-2.37-.22-.27-.43-.54-.62-.82l1.47-26.02c.11-1.93-1.37-3.58-3.29-3.68l-.46-.03c-1.93-.11-3.58,1.36-3.69,3.29l-1.46,25.86-4.69-9.5,1.28-22.76c.11-1.93-1.37-3.58-3.29-3.69-1.93-.11-3.58,1.37-3.68,3.29l-.56,9.99-6.71-14.16c-1.16-2.45-4.08-3.49-6.53-2.33-2.24,1.06-3.28,3.6-2.55,5.9-.01.75.13,1.51.48,2.23l5.61,11.36-8.14-5.73c-1.58-1.11-3.76-.73-4.87.84-1.11,1.58-.73,3.76.84,4.87l18.63,13.13.04.08,4.5,9.5-21.17-14.92c-1.58-1.11-3.76-.73-4.87.84l-.26.38c-1.11,1.58-.73,3.76.84,4.87l26.08,18.38c.04.13.09.25.13.37,1.98,6.55-1.54,13.44-7.94,15.68l-24.37-15.96c-1.61-1.06-3.78-.61-4.84,1.01l-.25.38c-1.06,1.61-.61,3.78,1.01,4.84l21.67,14.19-10.57-.69-19.07-12.49c-1.61-1.06-3.78-.61-4.84,1.01-1.06,1.61-.61,3.78,1.01,4.84l8.37,5.48-15.62-1.28c-2.7-.22-5.07,1.79-5.29,4.49-.2,2.47,1.48,4.65,3.84,5.17.64.38,1.37.64,2.17.69l12.64.82-9.03,4.18c-1.75.81-2.51,2.89-1.7,4.64.81,1.75,2.89,2.51,4.64,1.7l20.69-9.57h.09s10.47.86,10.47.86l-23.51,10.88c-1.75.81-2.51,2.89-1.7,4.64l.19.42c.81,1.75,2.89,2.51,4.64,1.7l31.33-14.49c6.52,2.1,10.2,8.94,8.36,15.51l-26.74,13.49c-1.72.87-2.41,2.97-1.55,4.69l.21.41c.87,1.72,2.97,2.41,4.69,1.55l23.13-11.67-5.88,8.81-20.35,10.27c-1.72.87-2.41,2.97-1.55,4.69.87,1.72,2.97,2.41,4.69,1.55l8.93-4.51-8.91,12.89c-1.54,2.23-.98,5.28,1.24,6.82,2.04,1.41,4.76,1.04,6.39-.74.65-.37,1.24-.87,1.69-1.54l7.03-10.54-.9,9.91c-.17,1.92,1.24,3.62,3.17,3.79,1.92.17,3.62-1.24,3.79-3.16l2.06-22.7.05-.08,5.98-8.64-2.34,25.8c-.17,1.92,1.24,3.62,3.17,3.79l.46.04c1.92.17,3.62-1.24,3.8-3.16l3.19-35.29c.32-.29.61-.59.96-.85,5.19-3.8,12.27-3.1,16.62,1.38l-1.74,30.8c-.11,1.93,1.36,3.58,3.29,3.68l.46.03c1.93.11,3.58-1.37,3.69-3.29l1.46-25.86,4.69,9.5-1.28,22.76c-.11,1.93,1.37,3.58,3.29,3.69,1.93.11,3.58-1.36,3.68-3.29l.56-9.99,6.7,14.16c1.16,2.45,4.08,3.49,6.53,2.33,2.24-1.06,3.28-3.6,2.55-5.9.01-.75-.13-1.51-.49-2.23l-5.61-11.36,8.14,5.73c1.58,1.11,3.76.73,4.87-.84,1.11-1.58.73-3.76-.84-4.87l-18.63-13.13-.04-.08-4.5-9.5,21.17,14.92c1.58,1.11,3.76.73,4.87-.84l.26-.38c1.11-1.58.73-3.76-.84-4.87l-27.21-19.18c-.15-.46-.29-.93-.39-1.41-1.29-6.32,2.32-12.49,8.25-14.55l25.45,16.67c1.61,1.06,3.78.61,4.84-1.01l.25-.38c1.06-1.61.61-3.78-1.01-4.84l-21.67-14.19,10.57.69,19.07,12.49c1.61,1.06,3.78.61,4.84-1.01,1.06-1.61.61-3.78-1.01-4.84l-8.37-5.48,15.62,1.28c2.7.22,5.07-1.79,5.29-4.49.2-2.47-1.48-4.65-3.84-5.17Zm-92.63-22.51h-.04v-.05s.03.04.04.05Z"/>
      <path class="cls-2" d="m893.37,169.94c-.22-.13-.47-.22-.75-.24l-4.37-.28,3.12-1.44c.61-.28.87-1,.59-1.6-.28-.61-1-.87-1.6-.59l-7.15,3.31h-.03s-3.62-.3-3.62-.3l8.12-3.76c.61-.28.87-1,.59-1.6l-.07-.14c-.28-.61-1-.87-1.6-.59l-9.48,4.38c-.14-.02-.27-.04-.41-.07-2.24-.52-3.68-2.67-3.36-4.9l8.77-4.42c.6-.3.83-1.03.53-1.62l-.07-.14c-.3-.6-1.03-.83-1.62-.53l-7.99,4.03,2.03-3.05,7.03-3.55c.6-.3.83-1.03.53-1.62-.3-.6-1.03-.83-1.62-.53l-3.09,1.56,3.08-4.45c.53-.77.34-1.82-.43-2.36-.71-.49-1.65-.36-2.21.26-.23.13-.43.3-.58.53l-2.43,3.64.31-3.43c.06-.66-.43-1.25-1.09-1.31-.66-.06-1.25.43-1.31,1.09l-.71,7.84-.02.03-2.07,2.99.81-8.92c.06-.66-.43-1.25-1.09-1.31h-.16c-.66-.07-1.25.42-1.31,1.08l-1.04,11.46c-1.85,1.25-4.37.93-5.84-.82-.08-.09-.15-.19-.21-.28l.51-8.99c.04-.67-.47-1.24-1.14-1.27h-.16c-.67-.05-1.24.46-1.27,1.13l-.5,8.94-1.62-3.28.44-7.87c.04-.67-.47-1.24-1.14-1.27-.67-.04-1.24.47-1.27,1.14l-.19,3.45-2.32-4.9c-.4-.85-1.41-1.21-2.26-.81-.77.37-1.14,1.24-.88,2.04,0,.26.05.52.17.77l1.94,3.93-2.81-1.98c-.55-.38-1.3-.25-1.68.29-.38.54-.25,1.3.29,1.68l6.44,4.54v.03s1.57,3.28,1.57,3.28l-7.32-5.16c-.55-.38-1.3-.25-1.68.29l-.09.13c-.38.55-.25,1.3.29,1.68l9.01,6.35s.03.08.05.13c.69,2.26-.53,4.64-2.74,5.42l-8.42-5.52c-.56-.37-1.31-.21-1.67.35l-.09.13c-.37.56-.21,1.31.35,1.67l7.49,4.91-3.65-.24-6.59-4.32c-.56-.37-1.31-.21-1.67.35-.37.56-.21,1.31.35,1.67l2.89,1.89-5.4-.44c-.93-.08-1.75.62-1.83,1.55-.07.85.51,1.61,1.33,1.79.22.13.47.22.75.24l4.37.28-3.12,1.44c-.61.28-.87,1-.59,1.6s1,.87,1.6.59l7.15-3.31h.03s3.62.3,3.62.3l-8.12,3.76c-.61.28-.87,1-.59,1.6l.07.14c.28.61,1,.87,1.6.59l10.83-5.01c2.25.72,3.53,3.09,2.89,5.36l-9.24,4.66c-.6.3-.83,1.03-.53,1.62l.07.14c.3.6,1.03.83,1.62.53l7.99-4.03-2.03,3.05-7.03,3.55c-.6.3-.83,1.03-.53,1.62.3.6,1.03.83,1.62.53l3.09-1.56-3.08,4.45c-.53.77-.34,1.83.43,2.36.71.49,1.65.36,2.21-.26.23-.13.43-.3.58-.53l2.43-3.64-.31,3.43c-.06.66.43,1.25,1.09,1.31.66.06,1.25-.43,1.31-1.09l.71-7.85.02-.03,2.07-2.99-.81,8.92c-.06.66.43,1.25,1.09,1.31h.16c.66.07,1.25-.42,1.31-1.08l1.1-12.19c.11-.1.21-.2.33-.29,1.79-1.31,4.24-1.07,5.75.48l-.6,10.64c-.04.67.47,1.24,1.14,1.27h.16c.67.05,1.24-.46,1.27-1.13l.5-8.94,1.62,3.28-.44,7.87c-.04.67.47,1.24,1.14,1.27.67.04,1.24-.47,1.27-1.14l.19-3.45,2.32,4.89c.4.85,1.41,1.21,2.26.81.78-.37,1.13-1.25.88-2.04,0-.26-.05-.52-.17-.77l-1.94-3.93,2.81,1.98c.55.38,1.3.25,1.68-.29.38-.54.25-1.3-.29-1.68l-6.44-4.54v-.03s-1.57-3.28-1.57-3.28l7.32,5.16c.55.38,1.3.25,1.68-.29l.09-.13c.38-.54.25-1.3-.29-1.68l-9.4-6.63c-.05-.16-.1-.32-.13-.49-.45-2.18.8-4.31,2.85-5.03l8.8,5.76c.56.37,1.31.21,1.67-.35l.09-.13c.37-.56.21-1.31-.35-1.67l-7.49-4.91,3.65.24,6.59,4.32c.56.37,1.31.21,1.67-.35.37-.56.21-1.31-.35-1.67l-2.89-1.89,5.4.44c.93.08,1.75-.62,1.83-1.55.07-.85-.51-1.61-1.33-1.78Zm-32.01-7.78h-.01v-.02s0,.01.01.02Z"/>
      <path class="cls-2" d="m1005.54,368.32c-.23-.14-.48-.23-.77-.24l-4.46-.29,3.19-1.48c.62-.29.89-1.02.6-1.64-.29-.62-1.02-.89-1.64-.6l-7.3,3.38h-.03s-3.7-.3-3.7-.3l8.3-3.84c.62-.29.89-1.02.6-1.64l-.07-.15c-.29-.62-1.02-.89-1.64-.6l-9.68,4.48c-.14-.02-.28-.04-.42-.07-2.29-.54-3.76-2.72-3.43-5.01l8.95-4.52c.61-.31.85-1.05.55-1.66l-.07-.14c-.31-.61-1.05-.85-1.66-.55l-8.16,4.12,2.08-3.11,7.18-3.62c.61-.31.85-1.05.55-1.66-.31-.61-1.05-.85-1.66-.55l-3.15,1.59,3.15-4.55c.54-.79.35-1.86-.44-2.41-.72-.5-1.68-.37-2.26.26-.23.13-.44.31-.6.54l-2.48,3.72.32-3.5c.06-.68-.44-1.28-1.12-1.34-.68-.06-1.28.44-1.34,1.12l-.73,8.01-.02.03-2.11,3.05.82-9.1c.06-.68-.44-1.28-1.12-1.34h-.16c-.68-.08-1.28.42-1.34,1.1l-1.06,11.7c-1.89,1.28-4.47.95-5.96-.84-.08-.09-.15-.19-.22-.29l.52-9.18c.04-.68-.48-1.26-1.16-1.3h-.16c-.68-.05-1.26.47-1.3,1.15l-.51,9.13-1.65-3.35.45-8.03c.04-.68-.48-1.26-1.16-1.3s-1.26.48-1.3,1.16l-.2,3.52-2.37-5c-.41-.86-1.44-1.23-2.3-.82-.79.37-1.16,1.27-.9,2.08,0,.26.05.53.17.79l1.98,4.01-2.87-2.02c-.56-.39-1.33-.26-1.72.3-.39.56-.26,1.33.3,1.72l6.57,4.63v.03s1.6,3.35,1.6,3.35l-7.47-5.27c-.56-.39-1.33-.26-1.72.3l-.09.13c-.39.56-.26,1.33.3,1.72l9.2,6.48s.03.09.05.13c.7,2.31-.54,4.74-2.8,5.53l-8.6-5.63c-.57-.37-1.33-.21-1.71.36l-.09.14c-.37.57-.21,1.33.36,1.71l7.65,5.01-3.73-.24-6.73-4.41c-.57-.37-1.33-.21-1.71.36-.37.57-.21,1.33.36,1.71l2.95,1.93-5.51-.45c-.95-.08-1.79.63-1.87,1.58-.07.87.52,1.64,1.35,1.82.23.14.48.23.77.24l4.46.29-3.19,1.48c-.62.29-.89,1.02-.6,1.64.29.62,1.02.89,1.64.6l7.3-3.38h.03s3.7.3,3.7.3l-8.3,3.84c-.62.29-.89,1.02-.6,1.64l.07.15c.29.62,1.02.89,1.64.6l11.05-5.11c2.3.74,3.6,3.15,2.95,5.47l-9.44,4.76c-.61.31-.85,1.05-.55,1.66l.07.14c.31.61,1.05.85,1.66.55l8.16-4.12-2.08,3.11-7.18,3.62c-.61.31-.85,1.05-.55,1.66.31.61,1.05.85,1.66.55l3.15-1.59-3.15,4.55c-.54.79-.35,1.86.44,2.41.72.5,1.68.37,2.26-.26.23-.13.44-.31.6-.54l2.48-3.72-.32,3.5c-.06.68.44,1.28,1.12,1.34.68.06,1.28-.44,1.34-1.12l.73-8.01.02-.03,2.11-3.05-.82,9.1c-.06.68.44,1.28,1.12,1.34h.16c.68.08,1.28-.42,1.34-1.1l1.13-12.45c.11-.1.22-.21.34-.3,1.83-1.34,4.33-1.1,5.87.49l-.61,10.87c-.04.68.48,1.26,1.16,1.3h.16c.68.05,1.26-.47,1.3-1.15l.51-9.13,1.65,3.35-.45,8.03c-.04.68.48,1.26,1.16,1.3.68.04,1.26-.48,1.3-1.16l.2-3.52,2.37,5c.41.86,1.44,1.23,2.3.82.79-.37,1.16-1.27.9-2.08,0-.26-.05-.53-.17-.79l-1.98-4.01,2.87,2.02c.56.39,1.33.26,1.72-.3.39-.56.26-1.33-.3-1.72l-6.57-4.63v-.03s-1.6-3.35-1.6-3.35l7.47,5.27c.56.39,1.33.26,1.72-.3l.09-.13c.39-.56.26-1.33-.3-1.72l-9.6-6.77c-.05-.16-.1-.33-.14-.5-.46-2.23.82-4.41,2.91-5.14l8.98,5.88c.57.37,1.33.21,1.71-.36l.09-.14c.37-.57.21-1.33-.36-1.71l-7.65-5.01,3.73.24,6.73,4.41c.57.37,1.33.21,1.71-.36.37-.57.21-1.33-.36-1.71l-2.95-1.93,5.51.45c.95.08,1.79-.63,1.87-1.58.07-.87-.52-1.64-1.35-1.82Zm-32.69-7.94h-.01v-.02s0,.01.01.02Z"/>
      <path class="cls-2" d="m1616.57,361.99c-.41-.25-.88-.41-1.39-.44l-8.11-.53,5.79-2.68c1.12-.52,1.61-1.85,1.09-2.97-.52-1.12-1.85-1.61-2.97-1.09l-13.27,6.14h-.06s-6.72-.55-6.72-.55l15.08-6.98c1.12-.52,1.61-1.85,1.09-2.97l-.12-.27c-.52-1.12-1.85-1.61-2.98-1.09l-17.59,8.14c-.25-.03-.51-.08-.76-.14-4.16-.97-6.83-4.95-6.23-9.1l16.27-8.21c1.1-.56,1.55-1.91.99-3.01l-.13-.26c-.56-1.1-1.91-1.55-3.01-.99l-14.83,7.48,3.77-5.65,13.05-6.59c1.1-.56,1.55-1.91.99-3.01s-1.91-1.55-3.01-.99l-5.73,2.89,5.72-8.27c.99-1.43.63-3.39-.8-4.38-1.31-.91-3.05-.67-4.1.47-.42.23-.8.56-1.08.98l-4.51,6.76.58-6.36c.11-1.23-.8-2.32-2.03-2.43-1.23-.11-2.32.8-2.43,2.03l-1.32,14.56-.03.05-3.83,5.54,1.5-16.55c.11-1.23-.8-2.32-2.03-2.43l-.29-.03c-1.23-.11-2.32.8-2.43,2.03l-1.93,21.27c-3.43,2.32-8.12,1.73-10.83-1.52-.14-.17-.27-.35-.4-.52l.94-16.69c.07-1.24-.88-2.29-2.11-2.36l-.29-.02c-1.24-.07-2.29.88-2.36,2.11l-.94,16.59-3.01-6.09.82-14.6c.07-1.24-.88-2.29-2.11-2.36-1.24-.07-2.29.88-2.36,2.11l-.36,6.41-4.3-9.08c-.74-1.57-2.62-2.24-4.19-1.5-1.44.68-2.11,2.31-1.64,3.79,0,.48.08.97.31,1.43l3.6,7.29-5.22-3.68c-1.01-.71-2.41-.47-3.12.54-.71,1.01-.47,2.41.54,3.12l11.95,8.42.03.05,2.88,6.09-13.58-9.57c-1.01-.71-2.41-.47-3.12.54l-.17.24c-.71,1.01-.47,2.41.54,3.12l16.73,11.79c.03.08.06.16.08.24,1.27,4.2-.99,8.62-5.09,10.06l-15.63-10.24c-1.04-.68-2.42-.39-3.1.65l-.16.25c-.68,1.04-.39,2.42.65,3.1l13.9,9.1-6.78-.44-12.23-8.01c-1.04-.68-2.42-.39-3.1.65-.68,1.04-.39,2.42.65,3.1l5.37,3.52-10.02-.82c-1.73-.14-3.25,1.15-3.39,2.88-.13,1.59.95,2.98,2.46,3.31.41.25.88.41,1.39.44l8.11.53-5.79,2.68c-1.12.52-1.61,1.85-1.09,2.97.52,1.12,1.85,1.61,2.98,1.09l13.27-6.14h.06s6.72.55,6.72.55l-15.08,6.98c-1.12.52-1.61,1.85-1.09,2.97l.12.27c.52,1.12,1.85,1.61,2.98,1.09l20.09-9.3c4.18,1.35,6.54,5.73,5.36,9.95l-17.15,8.66c-1.1.56-1.55,1.91-.99,3.01l.13.26c.56,1.1,1.91,1.55,3.01.99l14.83-7.48-3.77,5.65-13.05,6.59c-1.1.56-1.55,1.91-.99,3.01s1.91,1.55,3.01.99l5.73-2.89-5.72,8.27c-.99,1.43-.63,3.39.8,4.38,1.31.91,3.05.67,4.1-.47.42-.23.8-.56,1.08-.98l4.51-6.76-.58,6.36c-.11,1.23.8,2.32,2.03,2.43,1.23.11,2.32-.8,2.43-2.03l1.32-14.56.03-.05,3.83-5.54-1.5,16.55c-.11,1.23.8,2.32,2.03,2.43l.29.03c1.23.11,2.32-.8,2.43-2.03l2.05-22.63c.2-.18.39-.38.62-.54,3.33-2.44,7.87-1.99,10.66.88l-1.11,19.76c-.07,1.24.88,2.29,2.11,2.36l.29.02c1.24.07,2.29-.88,2.36-2.11l.94-16.59,3.01,6.09-.82,14.6c-.07,1.24.88,2.29,2.11,2.36,1.24.07,2.29-.88,2.36-2.11l.36-6.41,4.3,9.08c.74,1.57,2.62,2.24,4.19,1.5,1.44-.68,2.11-2.31,1.64-3.79,0-.48-.08-.97-.31-1.43l-3.6-7.29,5.22,3.68c1.01.71,2.41.47,3.12-.54.71-1.01.47-2.41-.54-3.12l-11.95-8.42-.03-.05-2.88-6.09,13.58,9.57c1.01.71,2.41.47,3.12-.54l.17-.24c.71-1.01.47-2.41-.54-3.12l-17.45-12.3c-.1-.3-.19-.6-.25-.91-.83-4.06,1.49-8.01,5.29-9.33l16.33,10.69c1.04.68,2.42.39,3.1-.65l.16-.25c.68-1.04.39-2.42-.65-3.1l-13.9-9.1,6.78.44,12.23,8.01c1.04.68,2.42.39,3.1-.65.68-1.04.39-2.42-.65-3.1l-5.37-3.52,10.02.82c1.73.14,3.25-1.15,3.39-2.88.13-1.59-.95-2.98-2.46-3.31Zm-59.41-14.44h-.03v-.03s.02.02.03.03Z"/>
      <path class="cls-2" d="m877.24,334.76c-.54-.32-1.16-.54-1.84-.59l-10.68-.7,7.63-3.53c1.48-.68,2.12-2.44,1.44-3.92-.68-1.48-2.44-2.12-3.92-1.44l-17.47,8.08h-.08s-8.84-.73-8.84-.73l19.85-9.19c1.48-.68,2.12-2.44,1.44-3.92l-.16-.35c-.68-1.48-2.44-2.12-3.92-1.44l-23.15,10.71c-.34-.04-.67-.1-1-.18-5.48-1.28-8.99-6.52-8.2-11.98l21.42-10.81c1.45-.73,2.04-2.51,1.31-3.96l-.17-.35c-.73-1.45-2.51-2.04-3.96-1.31l-19.53,9.85,4.97-7.44,17.19-8.67c1.45-.73,2.04-2.51,1.31-3.96s-2.51-2.04-3.96-1.31l-7.54,3.81,7.53-10.88c1.3-1.88.83-4.46-1.05-5.76-1.72-1.19-4.02-.88-5.4.62-.55.31-1.05.73-1.43,1.3l-5.94,8.9.76-8.37c.15-1.62-1.05-3.06-2.67-3.2-1.62-.15-3.06,1.05-3.2,2.67l-1.74,19.17-.04.06-5.05,7.3,1.97-21.79c.15-1.62-1.05-3.06-2.67-3.2l-.39-.03c-1.62-.15-3.06,1.05-3.2,2.67l-2.53,28.01c-4.52,3.06-10.69,2.27-14.26-2.01-.19-.22-.36-.46-.53-.69l1.24-21.97c.09-1.63-1.15-3.02-2.78-3.11l-.39-.02c-1.63-.09-3.02,1.15-3.11,2.78l-1.23,21.84-3.96-8.02,1.08-19.22c.09-1.63-1.15-3.02-2.78-3.11-1.63-.09-3.02,1.15-3.11,2.78l-.48,8.44-5.66-11.96c-.98-2.07-3.45-2.95-5.51-1.97-1.89.9-2.77,3.04-2.16,4.99,0,.63.11,1.28.41,1.88l4.74,9.59-6.87-4.84c-1.33-.94-3.17-.62-4.11.71-.94,1.33-.62,3.17.71,4.11l15.73,11.09.03.07,3.8,8.02-17.88-12.6c-1.33-.94-3.17-.62-4.11.71l-.22.32c-.94,1.33-.62,3.17.71,4.11l22.02,15.52c.04.11.08.21.11.31,1.68,5.53-1.3,11.35-6.7,13.24l-20.58-13.48c-1.36-.89-3.19-.51-4.09.85l-.21.32c-.89,1.36-.51,3.19.85,4.09l18.3,11.99-8.93-.58-16.1-10.55c-1.36-.89-3.19-.51-4.09.85-.89,1.36-.51,3.19.85,4.08l7.07,4.63-13.19-1.08c-2.28-.19-4.28,1.51-4.46,3.79-.17,2.09,1.25,3.92,3.24,4.36.54.32,1.16.54,1.84.59l10.68.7-7.63,3.53c-1.48.68-2.12,2.44-1.44,3.92.68,1.48,2.44,2.12,3.92,1.44l17.47-8.08h.08s8.84.73,8.84.73l-19.85,9.19c-1.48.68-2.12,2.44-1.44,3.92l.16.35c.68,1.48,2.44,2.12,3.92,1.44l26.45-12.24c5.5,1.77,8.62,7.55,7.06,13.1l-22.58,11.4c-1.45.73-2.04,2.51-1.31,3.96l.17.35c.73,1.45,2.51,2.04,3.96,1.31l19.53-9.85-4.97,7.44-17.19,8.67c-1.45.73-2.04,2.51-1.31,3.96.73,1.45,2.51,2.04,3.96,1.31l7.54-3.81-7.53,10.88c-1.3,1.88-.83,4.46,1.05,5.76,1.72,1.19,4.02.88,5.4-.62.55-.31,1.05-.73,1.42-1.3l5.94-8.9-.76,8.37c-.15,1.62,1.05,3.06,2.67,3.2,1.62.15,3.06-1.05,3.2-2.67l1.74-19.17.04-.06,5.05-7.3-1.97,21.79c-.15,1.62,1.05,3.06,2.67,3.2l.39.04c1.62.15,3.06-1.05,3.21-2.67l2.7-29.8c.27-.24.52-.5.81-.71,4.38-3.21,10.36-2.62,14.04,1.16l-1.47,26.01c-.09,1.63,1.15,3.02,2.78,3.11l.39.02c1.63.09,3.02-1.15,3.11-2.78l1.23-21.84,3.96,8.02-1.08,19.22c-.09,1.63,1.15,3.02,2.78,3.11,1.63.09,3.02-1.15,3.11-2.78l.48-8.44,5.66,11.96c.98,2.07,3.45,2.95,5.51,1.97,1.89-.9,2.77-3.04,2.16-4.99,0-.63-.11-1.28-.41-1.88l-4.74-9.59,6.87,4.84c1.33.94,3.17.62,4.11-.71.94-1.33.62-3.17-.71-4.11l-15.73-11.09-.03-.07-3.8-8.02,17.88,12.6c1.33.94,3.17.62,4.11-.71l.22-.32c.94-1.33.62-3.17-.71-4.11l-22.98-16.19c-.13-.39-.24-.79-.33-1.19-1.09-5.34,1.96-10.54,6.96-12.29l21.49,14.08c1.36.89,3.19.51,4.08-.85l.21-.32c.89-1.36.51-3.19-.85-4.08l-18.3-11.99,8.93.58,16.1,10.55c1.36.89,3.19.51,4.08-.85.89-1.36.51-3.19-.85-4.09l-7.07-4.63,13.19,1.08c2.28.19,4.28-1.51,4.46-3.79.17-2.09-1.25-3.92-3.24-4.36Zm-78.23-19.01h-.03v-.05s.02.03.03.05Z"/>
      <path class="cls-2" d="m642.31,249.2c-.54-.32-1.16-.54-1.84-.59l-10.68-.7,7.63-3.53c1.48-.68,2.12-2.44,1.44-3.92-.68-1.48-2.44-2.12-3.92-1.44l-17.47,8.08h-.08s-8.84-.73-8.84-.73l19.85-9.19c1.48-.68,2.12-2.44,1.44-3.92l-.16-.35c-.68-1.48-2.44-2.12-3.92-1.44l-23.16,10.71c-.34-.04-.67-.1-1-.18-5.48-1.28-8.99-6.52-8.2-11.98l21.42-10.81c1.45-.73,2.04-2.51,1.31-3.96l-.17-.35c-.73-1.45-2.51-2.04-3.96-1.31l-19.53,9.85,4.97-7.44,17.19-8.67c1.45-.73,2.04-2.51,1.31-3.96-.73-1.45-2.51-2.04-3.96-1.31l-7.54,3.81,7.53-10.88c1.3-1.88.83-4.46-1.05-5.76-1.72-1.19-4.02-.88-5.4.62-.55.31-1.05.73-1.43,1.3l-5.94,8.9.76-8.37c.15-1.62-1.05-3.06-2.67-3.2-1.62-.15-3.06,1.05-3.2,2.67l-1.74,19.17-.04.06-5.05,7.3,1.97-21.79c.15-1.62-1.05-3.06-2.67-3.2l-.39-.03c-1.62-.15-3.06,1.05-3.2,2.67l-2.53,28.01c-4.52,3.06-10.69,2.27-14.26-2.01-.19-.22-.36-.46-.53-.69l1.24-21.97c.09-1.63-1.15-3.02-2.78-3.11l-.39-.02c-1.63-.09-3.02,1.15-3.11,2.78l-1.23,21.84-3.96-8.02,1.08-19.22c.09-1.63-1.15-3.02-2.78-3.11-1.63-.09-3.02,1.15-3.11,2.78l-.48,8.44-5.66-11.96c-.98-2.07-3.45-2.95-5.51-1.97-1.89.9-2.77,3.04-2.16,4.99,0,.63.11,1.28.41,1.88l4.74,9.59-6.87-4.84c-1.33-.94-3.17-.62-4.11.71-.94,1.33-.62,3.17.71,4.11l15.73,11.09.03.07,3.8,8.02-17.88-12.6c-1.33-.94-3.17-.62-4.11.71l-.22.32c-.94,1.33-.62,3.17.71,4.11l22.02,15.52c.04.11.08.21.11.31,1.68,5.53-1.3,11.35-6.7,13.24l-20.58-13.48c-1.36-.89-3.19-.51-4.09.85l-.21.32c-.89,1.36-.51,3.19.85,4.09l18.3,11.99-8.93-.58-16.1-10.55c-1.36-.89-3.19-.51-4.09.85-.89,1.36-.51,3.19.85,4.08l7.07,4.63-13.19-1.08c-2.28-.19-4.28,1.51-4.46,3.79-.17,2.09,1.25,3.92,3.24,4.36.54.32,1.16.54,1.84.59l10.68.7-7.63,3.53c-1.48.68-2.12,2.44-1.44,3.92.68,1.48,2.44,2.12,3.92,1.44l17.47-8.08h.08s8.84.73,8.84.73l-19.85,9.19c-1.48.68-2.12,2.44-1.44,3.92l.16.35c.68,1.48,2.44,2.12,3.92,1.44l26.45-12.24c5.5,1.77,8.62,7.55,7.06,13.1l-22.58,11.4c-1.45.73-2.04,2.51-1.31,3.96l.17.35c.73,1.45,2.51,2.04,3.96,1.31l19.53-9.85-4.97,7.44-17.19,8.67c-1.45.73-2.04,2.51-1.31,3.96.73,1.45,2.51,2.04,3.96,1.31l7.54-3.81-7.53,10.88c-1.3,1.88-.83,4.46,1.05,5.76,1.72,1.19,4.02.88,5.4-.62.55-.31,1.05-.73,1.42-1.3l5.94-8.9-.76,8.37c-.15,1.62,1.05,3.06,2.67,3.2,1.62.15,3.06-1.05,3.2-2.67l1.74-19.17.04-.06,5.05-7.3-1.97,21.79c-.15,1.62,1.05,3.06,2.67,3.2l.39.03c1.62.15,3.06-1.05,3.21-2.67l2.7-29.8c.27-.24.52-.5.81-.71,4.38-3.21,10.36-2.62,14.04,1.16l-1.47,26.01c-.09,1.63,1.15,3.02,2.78,3.11l.39.02c1.63.09,3.02-1.15,3.11-2.78l1.23-21.84,3.96,8.02-1.08,19.22c-.09,1.63,1.15,3.02,2.78,3.11,1.63.09,3.02-1.15,3.11-2.78l.48-8.44,5.66,11.96c.98,2.07,3.45,2.95,5.51,1.97,1.89-.9,2.77-3.04,2.16-4.99,0-.63-.11-1.28-.41-1.88l-4.74-9.59,6.87,4.84c1.33.94,3.17.62,4.11-.71.94-1.33.62-3.17-.71-4.11l-15.73-11.09-.03-.07-3.8-8.02,17.88,12.6c1.33.94,3.17.62,4.11-.71l.22-.32c.94-1.33.62-3.17-.71-4.11l-22.98-16.19c-.13-.39-.24-.79-.33-1.19-1.09-5.34,1.96-10.54,6.96-12.29l21.49,14.08c1.36.89,3.19.51,4.09-.85l.21-.32c.89-1.36.51-3.19-.85-4.09l-18.3-11.99,8.93.58,16.1,10.55c1.36.89,3.19.51,4.08-.85.89-1.36.51-3.19-.85-4.09l-7.07-4.63,13.19,1.08c2.28.19,4.28-1.51,4.46-3.79.17-2.09-1.25-3.92-3.24-4.36Zm-78.23-19.01h-.03v-.05s.02.03.03.05Z"/>
    </g>
  </g>
</svg>