<?xml version="1.0" encoding="UTF-8"?>
<svg id="Layer_2" data-name="Layer 2" xmlns="http://www.w3.org/2000/svg" viewBox="0 0 1719.29 478.84">
  <defs>
    <style>
      .cls-1 {
        fill: #5cb7d9;
      }

      .cls-2 {
        fill: #5c9ed9;
      }

      .cls-3 {
        fill: #5ceed9;
      }

      .cls-4 {
        fill: #5cd0d9;
      }
    </style>
  </defs>
  <g id="Layer_4" data-name="Layer 4">
    <g>
      <path class="cls-2" d="m1719.29,87.61v303.62c0,8.43-1.19,16.59-3.42,24.31-10.54,36.56-44.24,63.3-84.19,63.3H87.62c-48.39,0-87.62-39.22-87.62-87.61V87.61C0,39.22,39.23,0,87.62,0h1544.06c48.38,0,87.61,39.22,87.61,87.61Z"/>
      <path class="cls-1" d="m1719.29,87.61v303.62c0,8.43-1.19,16.59-3.42,24.31-36.19-.58-72.08-4.7-104.49-20.03-38.54-18.23-69.67-51.31-110.53-63.46-60.77-18.08-131.48,13.62-187.47-16.12-35.44-18.83-58.02-59.55-96.8-69.87-23.55-6.26-48.45.16-71.67,7.53-31.75,10.08-63.25,22.07-96.36,25.77-33.1,3.7-68.91-1.99-94.21-23.66-31.25-26.76-41.77-73.22-75.81-96.33-23.78-16.15-55.28-18.03-78.43-35.08-14.76-10.87-24.72-26.91-34.31-42.54-16.35-26.64-32.8-53.51-46.02-81.75h911.91c48.38,0,87.61,39.22,87.61,87.61Z"/>
      <path class="cls-4" d="m1719.29,87.61v204.14c-30.46-3.46-60.09-13.86-85.48-31.11-20.13-13.68-39.08-31.79-63.22-34.89-28.77-3.69-55.76,15.17-84.7,17.22-29.28,2.07-57.27-13.44-78.84-33.34-.9-.83-1.79-1.67-2.67-2.52-33.65-32.18-81.41-44.75-126.34-32.52-20.27,5.51-41.19,8.64-62.2,9.21-14.96.4-30.91-.78-43.05-9.56-15.1-10.92-20.69-30.85-33.62-44.28-23.63-24.53-63.69-20.8-96.37-11.19-32.69,9.62-67.22,23.36-99.66,12.95-49.38-15.86-31.86-79.59-119.44-96.48-29.52-5.69-45-18.72-51.63-35.24h859.61c48.38,0,87.61,39.22,87.61,87.61Z"/>
      <path class="cls-3" d="m1719.29,87.61v94.08c-6.63,1.28-13.38,2.01-20.19,2.12-16.89.28-34.71-3.21-47.39-14.38-20.38-17.95-24.56-52.66-49.76-62.77-24.09-9.65-48.85,9.89-69.94,25.01-18.88,13.55-40.41,24.65-63.58,26.38-23.18,1.73-48.16-7.5-60.52-27.18-7.09-11.3-9.76-25.25-18.51-35.31-20.46-23.48-57.95-12.76-88.08-4.91-40,10.43-82.25,12.13-122.95,4.95-10.36-1.83-20.98-4.39-29.32-10.79-7.71-5.91-12.79-14.59-19.75-21.37-32.12-31.31-84.58-11.55-129.33-8.35-48.2,3.45-87.93-21.2-109.57-55.09h741.28c48.38,0,87.61,39.22,87.61,87.61Z"/>
    </g>
  </g>
</svg>