<?xml version="1.0" encoding="UTF-8"?>
<svg id="Layer_2" data-name="Layer 2" xmlns="http://www.w3.org/2000/svg" viewBox="0 0 1719.29 478.85">
  <defs>
    <style>
      .cls-1 {
        fill: #ffc46e;
      }

      .cls-2 {
        fill: #ff9a6e;
      }

      .cls-3 {
        fill: #ff7c6e;
      }

      .cls-4 {
        fill: #ffd800;
      }
    </style>
  </defs>
  <g id="Layer_4" data-name="Layer 4">
    <g>
      <path class="cls-3" d="m1719.29,87.62v303.61c0,38.81-25.23,71.72-60.18,83.24-8.63,2.84-17.85,4.38-27.43,4.38H87.62c-48.39,0-87.62-39.23-87.62-87.62V87.62C0,39.23,39.23,0,87.62,0h1544.06c41.89,0,76.91,29.4,85.56,68.7,1.34,6.09,2.05,12.42,2.05,18.92Z"/>
      <path class="cls-2" d="m1719.29,87.62v303.61c0,38.81-25.23,71.72-60.18,83.24-8.63,2.84-17.85,4.38-27.43,4.38h-588.35c-76.54-142.02-107.39-309.39-77.93-478.85h450.62l301.22,68.7c1.34,6.09,2.05,12.42,2.05,18.92Z"/>
      <path class="cls-1" d="m1719.29,87.62v303.61c0,38.81-25.23,71.72-60.18,83.24-13.6,1.17-27.37,1.77-41.28,1.77-263.02,0-476.24-213.22-476.24-476.24h490.09c48.38,0,87.61,39.23,87.61,87.62Z"/>
      <path class="cls-4" d="m1719.29,87.62v78.59c-39,65.65-110.64,109.65-192.54,109.65-123.61,0-223.81-100.2-223.81-223.81,0-17.92,2.11-35.35,6.09-52.05h322.65c48.38,0,87.61,39.23,87.61,87.62Z"/>
    </g>
  </g>
</svg>