<?xml version="1.0" encoding="UTF-8"?>
<svg id="Layer_2" data-name="Layer 2" xmlns="http://www.w3.org/2000/svg" viewBox="0 0 1719.29 478.85">
  <defs>
    <style>
      .cls-1 {
        fill: #336e8e;
      }

      .cls-2 {
        fill: #1a4f72;
      }

      .cls-3 {
        fill: #ffc32e;
      }

      .cls-4 {
        fill: #073358;
      }
    </style>
  </defs>
  <g id="Layer_4" data-name="Layer 4">
    <g>
      <path class="cls-4" d="m1719.29,87.62v303.61c0,48.39-39.22,87.62-87.61,87.62H87.62c-48.39,0-87.62-39.23-87.62-87.62V87.62C0,39.23,39.23,0,87.62,0h1544.06c48.39,0,87.61,39.23,87.61,87.62Z"/>
      <path class="cls-2" d="m1539.11,54c0,183.97-149.14,333.11-333.11,333.11S872.9,237.97,872.9,54c0-18.39,1.49-36.43,4.36-54h657.49c2.87,17.57,4.36,35.61,4.36,54Z"/>
      <path class="cls-1" d="m1464.84,54c0,142.95-115.89,258.83-258.84,258.83s-258.83-115.88-258.83-258.83c0-18.52,1.94-36.58,5.64-54h506.39c3.7,17.42,5.64,35.48,5.64,54Z"/>
      <path class="cls-3" d="m1390.12,54c0,101.69-82.43,184.12-184.12,184.12s-184.12-82.43-184.12-184.12c0-18.79,2.82-36.93,8.05-54h352.14c5.23,17.07,8.05,35.21,8.05,54Z"/>
      <circle class="cls-3" cx="615.58" cy="43.92" r="6.18"/>
      <circle class="cls-3" cx="666.33" cy="105.07" r="7.48"/>
      <path class="cls-3" d="m738.38,196.24c0,1.48-1.2,2.68-2.68,2.68s-2.68-1.2-2.68-2.68,1.2-2.68,2.68-2.68,2.68,1.2,2.68,2.68Z"/>
      <path class="cls-3" d="m780.43,101.78c0,2.31-1.88,4.19-4.19,4.19s-4.19-1.88-4.19-4.19,1.88-4.19,4.19-4.19,4.19,1.88,4.19,4.19Z"/>
      <circle class="cls-3" cx="821.43" cy="230.38" r="7.74"/>
      <circle class="cls-3" cx="658.78" cy="253.8" r="7.74"/>
      <path class="cls-3" d="m587.55,153.03c0,1.87-1.52,3.39-3.39,3.39s-3.39-1.52-3.39-3.39,1.52-3.39,3.39-3.39,3.39,1.52,3.39,3.39Z"/>
      <circle class="cls-3" cx="826.26" cy="308.01" r="4.82"/>
      <circle class="cls-3" cx="719.62" cy="323.62" r="4.82"/>
      <path class="cls-3" d="m1021.88,415.02c0,2.51-2.04,4.55-4.55,4.55s-4.55-2.04-4.55-4.55,2.04-4.55,4.55-4.55,4.55,2.04,4.55,4.55Z"/>
      <path class="cls-3" d="m1198.85,448.27c0,3.23-2.62,5.86-5.86,5.86s-5.86-2.62-5.86-5.86,2.62-5.86,5.86-5.86,5.86,2.62,5.86,5.86Z"/>
      <circle class="cls-3" cx="909.33" cy="351.98" r="5.86"/>
      <circle class="cls-3" cx="1515.69" cy="367.59" r="9.76" transform="translate(184.01 1179.42) rotate(-45)"/>
      <circle class="cls-3" cx="1587.72" cy="305.59" r="2.41"/>
      <path class="cls-3" d="m1627.75,396.31c0,2.74-2.22,4.96-4.96,4.96s-4.96-2.22-4.96-4.96,2.22-4.96,4.96-4.96,4.96,2.22,4.96,4.96Z"/>
      <circle class="cls-3" cx="1650.41" cy="204.17" r="5.25"/>
      <circle class="cls-3" cx="1663.13" cy="105.07" r="7.48"/>
      <circle class="cls-3" cx="1589.06" cy="194.9" r="1.34"/>
      <path class="cls-3" d="m575.51,293.09c0,3.22-2.61,5.82-5.82,5.82s-5.82-2.61-5.82-5.82,2.61-5.82,5.82-5.82,5.82,2.61,5.82,5.82Z"/>
      <path class="cls-3" d="m575.51,334.27c0,3.22-2.61,5.82-5.82,5.82s-5.82-2.61-5.82-5.82,2.61-5.82,5.82-5.82,5.82,2.61,5.82,5.82Z"/>
      <path class="cls-3" d="m538.92,362.71c0,2.69-2.18,4.88-4.88,4.88s-4.88-2.18-4.88-4.88,2.18-4.88,4.88-4.88,4.88,2.18,4.88,4.88Z"/>
      <circle class="cls-3" cx="519.15" cy="257.67" r="3.87"/>
      <path class="cls-3" d="m478.56,340.2c0,3.27-2.65,5.93-5.93,5.93s-5.93-2.65-5.93-5.93,2.65-5.93,5.93-5.93,5.93,2.65,5.93,5.93Z"/>
      <circle class="cls-3" cx="678.41" cy="405.87" r="4.6"/>
      <path class="cls-3" d="m621.76,425.75c0,3.41-2.77,6.18-6.18,6.18s-6.18-2.77-6.18-6.18,2.77-6.18,6.18-6.18,6.18,2.77,6.18,6.18Z"/>
    </g>
  </g>
</svg>