<?xml version="1.0" encoding="UTF-8"?>
<svg id="Layer_2" data-name="Layer 2" xmlns="http://www.w3.org/2000/svg" viewBox="0 0 1719.29 478.85">
  <defs>
    <style>
      .cls-1 {
        fill: #cee4ef;
      }

      .cls-2 {
        fill: #b1d2e5;
      }

      .cls-3 {
        fill: #9ac0da;
      }
    </style>
  </defs>
  <g id="Layer_4" data-name="Layer 4">
    <g>
      <path class="cls-3" d="m1719.29,87.62v303.61c0,48.39-39.23,87.62-87.61,87.62H87.62C39.7,478.85.75,440.37.02,392.62c-.02-.46-.02-.92-.02-1.39V87.62C0,39.23,39.23,0,87.62,0h1544.06c48.38,0,87.61,39.23,87.61,87.62Z"/>
      <path class="cls-2" d="m1013.21,443.99c0,2.09-.1,4.18-.3,6.25-.93,9.75-4.04,19.31-9.16,28.61H87.62C39.7,478.85.75,440.37.02,392.62c62.94-75.6,261.26-130.8,496.17-130.8,157.56,0,298.66,24.83,393.49,64.01,72.09,29.76,117.44,67.81,122.96,109.53.38,2.86.57,5.74.57,8.63Z"/>
      <path class="cls-2" d="m1719.29,329.3v61.93c0,48.39-39.23,87.62-87.61,87.62h-883.49c6.77-36.4,29.22-70.67,64.13-101.28,21.36-18.74,47.4-36.1,77.36-51.74,101.58-53.07,248.33-86.4,411.53-86.4s316.31,34.79,418.08,89.87Z"/>
      <path class="cls-1" d="m1048.95,478.85H166.94c70.91-70.32,241.64-119.88,441-119.88,73.15,0,142.45,6.67,204.38,18.6,76.85,14.79,142.34,37.67,189.76,65.91,3.72,2.22,7.33,4.47,10.83,6.76,13.89,9.06,25.97,18.62,36.04,28.61Z"/>
      <path class="cls-1" d="m1719.29,347.98v43.25c0,48.39-39.23,87.62-87.61,87.62h-662.43c7.98-12.28,19.03-24.11,32.83-35.37,3.36-2.75,6.88-5.45,10.56-8.12,88-63.89,266.58-107.61,472.55-107.61,84.02,0,163.48,7.27,234.1,20.23Z"/>
      <g>
        <circle class="cls-1" cx="585.11" cy="66.2" r="12.58" transform="translate(426.04 633.15) rotate(-80.78)"/>
        <path class="cls-1" d="m690.94,72.49c0,3.47-2.82,6.29-6.29,6.29s-6.29-2.82-6.29-6.29,2.82-6.29,6.29-6.29,6.29,2.82,6.29,6.29Z"/>
        <circle class="cls-1" cx="698.69" cy="168.29" r="14.04"/>
        <path class="cls-1" d="m617.13,205.69c0,2.54-2.06,4.59-4.59,4.59s-4.59-2.06-4.59-4.59,2.06-4.59,4.59-4.59,4.59,2.06,4.59,4.59Z"/>
        <circle class="cls-1" cx="793.61" cy="216.22" r="5.94"/>
        <circle class="cls-1" cx="827.57" cy="117.82" r="6.94"/>
        <circle class="cls-1" cx="950.21" cy="76.07" r="9.87"/>
        <path class="cls-1" d="m969.25,186.92c0,2.53-2.05,4.59-4.59,4.59s-4.59-2.05-4.59-4.59,2.05-4.59,4.59-4.59,4.59,2.05,4.59,4.59Z"/>
        <path class="cls-1" d="m900.81,256.61c0,2.88-2.33,5.21-5.21,5.21s-5.21-2.33-5.21-5.21,2.33-5.21,5.21-5.21,5.21,2.33,5.21,5.21Z"/>
        <circle class="cls-1" cx="1137.25" cy="144.71" r="9.54" transform="translate(735.13 1218.29) rotate(-76.72)"/>
        <circle class="cls-1" cx="1228.96" cy="63.06" r="9.43" transform="translate(885.23 1244.66) rotate(-76.72)"/>
        <circle class="cls-1" cx="1200.42" cy="193.7" r="6.78"/>
        <circle class="cls-1" cx="1311.96" cy="151.82" r="7.11"/>
        <circle class="cls-1" cx="1452.2" cy="84.8" r="8.73"/>
        <path class="cls-1" d="m1452.2,156.19c0,2.41-1.95,4.36-4.36,4.36s-4.36-1.95-4.36-4.36,1.95-4.36,4.36-4.36,4.36,1.95,4.36,4.36Z"/>
        <circle class="cls-1" cx="1391.99" cy="203.39" r="2.3"/>
        <circle class="cls-1" cx="1058" cy="54" r="9.05" transform="translate(835.22 1089.7) rotate(-80.78)"/>
        <path class="cls-1" d="m1590.86,173.02c0,2.61-2.12,4.73-4.73,4.73s-4.73-2.12-4.73-4.73,2.12-4.73,4.73-4.73,4.73,2.12,4.73,4.73Z"/>
        <circle class="cls-1" cx="1614.36" cy="105.67" r="12.14"/>
      </g>
      <circle class="cls-1" cx="95.94" cy="161.27" r="7.02"/>
      <path class="cls-1" d="m125.5,158.44c0,2.32-1.88,4.19-4.19,4.19s-4.19-1.88-4.19-4.19,1.88-4.19,4.19-4.19,4.19,1.88,4.19,4.19Z"/>
      <path class="cls-1" d="m141.11,151.94c0,2.08-1.68,3.76-3.76,3.76s-3.76-1.68-3.76-3.76,1.68-3.76,3.76-3.76,3.76,1.68,3.76,3.76Z"/>
      <path class="cls-1" d="m117.77,171.17c0,.88-.71,1.59-1.59,1.59s-1.59-.71-1.59-1.59.71-1.59,1.59-1.59,1.59.71,1.59,1.59Z"/>
      <path class="cls-1" d="m140.2,173.75c0,1.43-1.16,2.58-2.58,2.58s-2.58-1.16-2.58-2.58,1.16-2.58,2.58-2.58,2.58,1.16,2.58,2.58Z"/>
      <path class="cls-1" d="m107.88,183.31c0,1.36-1.1,2.46-2.46,2.46s-2.46-1.1-2.46-2.46,1.1-2.46,2.46-2.46,2.46,1.1,2.46,2.46Z"/>
      <path class="cls-1" d="m82.95,171.02c0,1.51-1.22,2.73-2.73,2.73s-2.73-1.22-2.73-2.73,1.22-2.73,2.73-2.73,2.73,1.22,2.73,2.73Z"/>
    </g>
  </g>
</svg>