<?xml version="1.0" encoding="UTF-8"?>
<svg id="Layer_2" data-name="Layer 2" xmlns="http://www.w3.org/2000/svg" viewBox="0 0 1719.29 489.98">
  <defs>
    <style>
      .cls-1 {
        fill: #57748c;
      }

      .cls-2 {
        fill: #3e596b;
      }

      .cls-3 {
        fill: #182830;
      }

      .cls-4 {
        fill: #273d49;
      }

      .cls-5 {
        fill: #87a1b2;
      }
    </style>
  </defs>
  <g id="Layer_4" data-name="Layer 4">
    <g>
      <g>
        <line class="cls-5" x1="609.1" y1="233.83" x2="660.84" y2="150.46"/>
        <line class="cls-5" x1="686.03" y1="233.83" x2="737.77" y2="150.46"/>
        <line class="cls-5" x1="664.03" y1="332.77" x2="715.77" y2="249.39"/>
        <line class="cls-5" x1="764.03" y1="227.58" x2="815.77" y2="144.21"/>
        <line class="cls-5" x1="851.21" y1="227.58" x2="902.95" y2="144.21"/>
        <line class="cls-5" x1="828.75" y1="332.77" x2="880.49" y2="249.39"/>
        <line class="cls-5" x1="600.53" y1="327.35" x2="652.27" y2="243.97"/>
        <line class="cls-5" x1="926.08" y1="231.75" x2="977.82" y2="148.37"/>
        <line class="cls-5" x1="728.58" y1="430.31" x2="780.32" y2="346.93"/>
        <line class="cls-5" x1="652.27" y1="430.31" x2="704.01" y2="346.93"/>
        <line class="cls-5" x1="574.66" y1="430.31" x2="626.4" y2="346.93"/>
        <line class="cls-5" x1="738.16" y1="328.94" x2="789.9" y2="245.57"/>
      </g>
      <g>
        <line class="cls-5" x1="995.91" y1="174.16" x2="1047.66" y2="90.78"/>
        <line class="cls-5" x1="1072.84" y1="174.16" x2="1124.58" y2="90.78"/>
        <line class="cls-5" x1="1050.84" y1="273.09" x2="1102.58" y2="189.72"/>
        <line class="cls-5" x1="1150.84" y1="167.91" x2="1202.58" y2="84.53"/>
        <line class="cls-5" x1="1238.02" y1="167.91" x2="1289.76" y2="84.53"/>
        <line class="cls-5" x1="1215.56" y1="273.09" x2="1267.3" y2="189.72"/>
        <line class="cls-5" x1="987.34" y1="267.68" x2="1039.08" y2="184.3"/>
        <line class="cls-5" x1="1312.89" y1="172.07" x2="1364.63" y2="88.7"/>
        <line class="cls-5" x1="1115.39" y1="370.63" x2="1167.13" y2="287.26"/>
        <line class="cls-5" x1="1039.08" y1="370.63" x2="1090.82" y2="287.26"/>
        <line class="cls-5" x1="961.47" y1="370.63" x2="1013.21" y2="287.26"/>
        <line class="cls-5" x1="1124.97" y1="269.27" x2="1176.71" y2="185.89"/>
      </g>
      <g>
        <line class="cls-5" x1="1269.72" y1="293.51" x2="1321.47" y2="210.13"/>
        <line class="cls-5" x1="1346.65" y1="293.51" x2="1398.39" y2="210.13"/>
        <line class="cls-5" x1="1324.65" y1="392.44" x2="1376.39" y2="309.07"/>
        <line class="cls-5" x1="1424.65" y1="287.26" x2="1476.4" y2="203.88"/>
        <line class="cls-5" x1="1511.83" y1="287.26" x2="1563.57" y2="203.88"/>
        <line class="cls-5" x1="1489.37" y1="392.44" x2="1541.12" y2="309.07"/>
        <line class="cls-5" x1="1261.15" y1="387.02" x2="1312.89" y2="303.65"/>
        <line class="cls-5" x1="1586.7" y1="291.42" x2="1638.44" y2="208.05"/>
        <line class="cls-5" x1="1389.2" y1="489.98" x2="1440.94" y2="406.61"/>
        <line class="cls-5" x1="1312.89" y1="489.98" x2="1364.63" y2="406.61"/>
        <line class="cls-5" x1="1235.28" y1="489.98" x2="1287.02" y2="406.61"/>
        <line class="cls-5" x1="1398.78" y1="388.62" x2="1450.52" y2="305.24"/>
      </g>
      <path class="cls-1" d="m1719.29,87.61v303.62c0,48.39-39.22,87.61-87.61,87.61H87.62c-48.39,0-87.62-39.22-87.62-87.61V87.61C0,39.22,39.23,0,87.62,0h1544.06c48.39,0,87.61,39.22,87.61,87.61Z"/>
      <path class="cls-2" d="m1719.29,87.61v204.83c-51.6-.26-104.7-11.99-156.2-5.22-41.54,5.45-80.51,22.75-121.2,32.75-91.19,22.41-191.22,6.22-270.69-43.8-20.89-13.16-40.98-28.79-64.86-35.05-17.54-4.61-36.03-3.82-54.07-1.97-27.12,2.77-54.01,7.88-80.26,15.24-34.89,9.79-69,23.61-105.06,27.08-48.54,4.68-98.71-10.6-136.39-41.55-37.68-30.96-62.43-77.19-67.27-125.72-3.55-35.49,2.6-76.34,12.36-114.2h956.03c48.39,0,87.61,39.22,87.61,87.61Z"/>
      <path class="cls-4" d="m1719.29,87.61v107.03c-34.03,15.91-74.49,18.3-109.29,4.13-14.7-5.98-28.27-14.61-43.28-19.75-37.64-12.87-79.27-2.21-115.86,13.42-36.59,15.63-71.53,36.31-110.47,44.49-67.2,14.11-137.93-11.7-192.21-53.75-21.26-16.47-43-36.37-69.88-37.31-17.24-.6-33.56,6.89-49.67,13.07-52.12,19.98-110.36,27.19-164.17,12.36-53.81-14.83-102.25-53.62-121.39-106.05-6.1-16.73-12.57-42.18-13.5-65.25h902.11c48.39,0,87.61,39.22,87.61,87.61Z"/>
      <path class="cls-3" d="m1719.29,87.61v38.98c-1.75,1.64-3.56,3.2-5.45,4.69-34.99,27.68-84.03,28.06-128.26,22.19-28.07-3.72-56.56-9.7-80.61-24.64-11.45-7.11-21.87-16.22-34.53-20.84-12.93-4.71-27.1-4.31-40.85-3.66-71.2,3.35-142.28,11.77-213.53,9.93-71.25-1.85-143.89-14.63-205.41-50.63-25.98-15.2-50.63-35.71-61.71-63.63h682.74c48.39,0,87.61,39.22,87.61,87.61Z"/>
    </g>
  </g>
</svg>