<?xml version="1.0" encoding="UTF-8"?>
<svg id="Layer_2" data-name="Layer 2" xmlns="http://www.w3.org/2000/svg" viewBox="0 0 16.61 16.61">
  <defs>
    <style>
      .cls-1 {
        fill: #004584;
      }

      .cls-2 {
        fill: #d9ecf2;
      }

      .cls-3 {
        fill: #bdd9e5;
      }

      .cls-4 {
        fill: #0162a7;
      }
    </style>
  </defs>
  <g id="Layer_1-2" data-name="Layer 1">
    <g>
      <g>
        <circle class="cls-2" cx="8.31" cy="8.31" r="8.31"/>
        <path class="cls-3" d="m6.88.12v16.37c.46.08.94.12,1.42.12V0c-.49,0-.96.04-1.42.12Z"/>
        <path class="cls-3" d="m6.33,12.09c0-.63.51-1.14,1.14-1.14s1.14.51,1.14,1.14-.51,1.14-1.14,1.14-1.14-.51-1.14-1.14Z"/>
        <path class="cls-2" d="m8.31,11.33c-.21-.23-.51-.38-.84-.38-.21,0-.41.06-.58.16v1.96c.17.1.37.16.58.16.34,0,.64-.15.84-.38v-1.52Z"/>
        <path class="cls-3" d="m2.12,13.85c.37-.26.62-.7.62-1.19,0-.8-.65-1.46-1.46-1.46-.25,0-.49.06-.69.18.36.92.89,1.75,1.53,2.47Z"/>
        <path class="cls-3" d="m9.18,6.73c0-1.12.91-2.03,2.03-2.03s2.03.91,2.03,2.03-.91,2.03-2.03,2.03-2.03-.91-2.03-2.03Z"/>
        <circle class="cls-3" cx="4.09" cy="5.58" r="1.15"/>
        <g>
          <path class="cls-2" d="m8.1,2.83h6.45c-.44-.5-.93-.94-1.47-1.32h-4.97c-.36,0-.66.3-.66.66s.3.66.66.66Z"/>
          <path class="cls-3" d="m16.28,10.64h-2.11c-.36,0-.66.3-.66.66s.3.66.66.66h1.6c.21-.42.38-.86.51-1.32Z"/>
        </g>
        <path class="cls-3" d="m.08,9.42h2.24c.36,0,.66-.3.66-.66s-.3-.66-.66-.66H0c0,.07,0,.14,0,.21,0,.38.03.75.08,1.11Z"/>
      </g>
      <path class="cls-4" d="m16.61,8.31C16.61,3.72,12.9,0,8.31,0v16.61c4.59,0,8.31-3.72,8.31-8.31Z"/>
      <path class="cls-1" d="m8.31,0v.13c3.89.69,6.84,4.09,6.84,8.18s-2.95,7.48-6.84,8.18v.13c4.59,0,8.31-3.72,8.31-8.31S12.9,0,8.31,0Z"/>
      <g>
        <path class="cls-1" d="m16.44,6.62c-.04-.2-.09-.4-.15-.6-.05.01-.09.04-.13.07l-7.86,7.86v.69c.07,0,.15-.03.2-.08l7.93-7.93Z"/>
        <path class="cls-1" d="m8.31,1.51v.69h0c.07,0,.15-.03.2-.08l1.73-1.73s.06-.09.08-.14c-.2-.05-.41-.09-.62-.13l-1.39,1.39Z"/>
        <path class="cls-1" d="m16.15,11.06c.09-.26.17-.53.24-.8-.1-.04-.22-.02-.3.06l-5.81,5.81c-.07.07-.1.18-.07.27.29-.07.58-.15.86-.25l5.09-5.09Z"/>
        <path class="cls-1" d="m16.4,7.93l-8.09,8.09v.6c.07,0,.14,0,.22,0l8.09-8.09c0-.07,0-.14,0-.21,0-.16,0-.31-.01-.46-.07,0-.15.03-.2.08Z"/>
        <path class="cls-1" d="m15.62,4.56l-7.31,7.31v.69c.07,0,.15-.03.2-.08l7.44-7.44c-.08-.18-.16-.36-.25-.53-.03.01-.05.03-.07.05Z"/>
        <path class="cls-1" d="m8.31,3.58v.69c.07,0,.15-.03.2-.08l3.3-3.3s.04-.05.06-.08c-.18-.08-.36-.16-.55-.23l-3.01,3.01Z"/>
        <path class="cls-1" d="m8.31,5.65v.69h0c.07,0,.15-.03.2-.08L13.17,1.6s0-.01.01-.02c-.16-.11-.32-.22-.48-.32l-4.39,4.39Z"/>
        <path class="cls-1" d="m8.31,7.72v.69c.07,0,.15-.03.2-.08l5.78-5.78c-.13-.14-.27-.27-.41-.4l-5.58,5.58Z"/>
        <path class="cls-1" d="m14.85,3.26l-6.54,6.54v.69h0c.07,0,.15-.03.2-.08l6.71-6.71c-.11-.16-.22-.31-.34-.46-.01,0-.02.02-.03.03Z"/>
      </g>
    </g>
  </g>
</svg>