<?xml version="1.0" encoding="UTF-8"?>
<svg id="Layer_2" data-name="Layer 2" xmlns="http://www.w3.org/2000/svg" viewBox="0 0 18.85 16.04">
  <defs>
    <style>
      .cls-1 {
        fill: #fabe02;
      }

      .cls-2 {
        fill: #d9ecf2;
      }

      .cls-3 {
        fill: #bdd9e5;
      }

      .cls-4 {
        fill: #f59a1d;
      }
    </style>
  </defs>
  <g id="Layer_1-2" data-name="Layer 1">
    <g>
      <path class="cls-1" d="m10.83,2.79c-2.89,0-5.23,2.34-5.23,5.23s2.34,5.23,5.23,5.23,5.23-2.34,5.23-5.23-2.34-5.23-5.23-5.23Z"/>
      <path class="cls-4" d="m8.47,3.35c-1.7.86-2.87,2.63-2.87,4.67s1.17,3.8,2.87,4.67c1.7-.86,2.87-2.63,2.87-4.67s-1.17-3.8-2.87-4.67Z"/>
      <path class="cls-4" d="m10.83,2.79c-.22,0-.44.02-.65.04,2.58.32,4.58,2.52,4.58,5.19s-2,4.87-4.58,5.19c.21.03.43.04.65.04,2.89,0,5.23-2.34,5.23-5.23s-2.34-5.23-5.23-5.23Z"/>
      <g>
        <path class="cls-1" d="m10.83,1.84c-.16,0-.29-.13-.29-.29V.29c0-.16.13-.29.29-.29s.29.13.29.29v1.27c0,.16-.13.29-.29.29Z"/>
        <path class="cls-1" d="m7.6,2.71c-.1,0-.19-.05-.25-.14l-.64-1.1c-.08-.14-.03-.31.1-.39.14-.08.31-.03.39.1l.64,1.1c.08.14.03.31-.1.39-.04.03-.09.04-.14.04Z"/>
        <path class="cls-1" d="m5.23,5.07s-.1-.01-.14-.04l-1.1-.64c-.14-.08-.18-.25-.1-.39s.25-.18.39-.1l1.1.64c.14.08.18.25.1.39-.05.09-.15.14-.25.14Z"/>
        <path class="cls-1" d="m16.43,5.07c-.1,0-.19-.05-.25-.14-.08-.14-.03-.31.1-.39l1.1-.64c.14-.08.31-.03.39.1.08.14.03.31-.1.39l-1.1.64s-.09.04-.14.04Z"/>
        <path class="cls-1" d="m14.06,2.71s-.1-.01-.14-.04c-.14-.08-.18-.25-.1-.39l.64-1.1c.08-.14.25-.18.39-.1.14.08.18.25.1.39l-.64,1.1c-.05.09-.15.14-.25.14Z"/>
        <path class="cls-1" d="m10.83,16.04c-.16,0-.29-.13-.29-.29v-1.27c0-.16.13-.29.29-.29s.29.13.29.29v1.27c0,.16-.13.29-.29.29Z"/>
        <path class="cls-1" d="m18.57,8.31h-1.27c-.16,0-.29-.13-.29-.29s.13-.29.29-.29h1.27c.16,0,.29.13.29.29s-.13.29-.29.29Z"/>
        <path class="cls-1" d="m4.37,8.31h-1.27c-.16,0-.29-.13-.29-.29s.13-.29.29-.29h1.27c.16,0,.29.13.29.29s-.13.29-.29.29Z"/>
        <path class="cls-1" d="m14.7,15.01c-.1,0-.19-.05-.25-.14l-.64-1.1c-.08-.14-.03-.31.1-.39.14-.08.31-.03.39.1l.64,1.1c.08.14.03.31-.1.39-.04.03-.09.04-.14.04Z"/>
        <path class="cls-1" d="m17.53,12.17s-.1-.01-.14-.04l-1.1-.64c-.14-.08-.18-.25-.1-.39.08-.14.25-.18.39-.1l1.1.64c.14.08.18.25.1.39-.05.09-.15.14-.25.14Z"/>
        <path class="cls-1" d="m4.13,12.17c-.1,0-.19-.05-.25-.14-.08-.14-.03-.31.1-.39l1.1-.64c.14-.08.31-.03.39.1.08.14.03.31-.1.39l-1.1.64s-.09.04-.14.04Z"/>
        <path class="cls-1" d="m6.96,15.01s-.1-.01-.14-.04c-.14-.08-.18-.25-.1-.39l.64-1.1c.08-.14.25-.18.39-.1.14.08.18.25.1.39l-.64,1.1c-.05.09-.15.14-.25.14Z"/>
      </g>
    </g>
    <g>
      <path class="cls-2" d="m5.23,2.79C2.34,2.79,0,5.13,0,8.02s2.34,5.23,5.23,5.23,5.23-2.34,5.23-5.23-2.34-5.23-5.23-5.23Z"/>
      <path class="cls-3" d="m5.23,2.79c-.26,0-.51.02-.75.05,2.53.36,4.48,2.54,4.48,5.18s-1.95,4.81-4.48,5.18c.25.04.5.05.75.05,2.89,0,5.23-2.34,5.23-5.23s-2.34-5.23-5.23-5.23Z"/>
      <path class="cls-3" d="m6.48,5.64c0,.4-.32.72-.72.72s-.72-.32-.72-.72.32-.72.72-.72.72.32.72.72Z"/>
      <path class="cls-2" d="m9.13,4.53c-.24.17-.39.44-.39.75,0,.51.41.92.92.92.16,0,.31-.04.44-.11-.23-.58-.56-1.1-.97-1.56Z"/>
      <path class="cls-3" d="m4.68,9.02c0,.71-.57,1.28-1.28,1.28s-1.28-.57-1.28-1.28.57-1.28,1.28-1.28,1.28.57,1.28,1.28Z"/>
      <path class="cls-3" d="m8.61,9.74c0,.4-.32.72-.72.72s-.72-.32-.72-.72.32-.72.72-.72.72.32.72.72Z"/>
      <g>
        <path class="cls-3" d="m5.36,11.47H1.3c.27.31.59.59.93.83h3.13c.23,0,.42-.19.42-.42s-.19-.42-.42-.42Z"/>
        <path class="cls-3" d="m.21,6.55h1.33c.23,0,.42-.19.42-.42s-.19-.42-.42-.42H.53c-.13.26-.24.54-.32.83Z"/>
      </g>
      <path class="cls-3" d="m10.42,7.32h-1.41c-.23,0-.42.19-.42.42s.19.42.42.42h1.45s0-.09,0-.13c0-.24-.02-.47-.05-.7Z"/>
      <path class="cls-2" d="m10.45,7.69s0-.03,0-.04c0-.11-.02-.21-.03-.32h-1.41s-.06,0-.09.01c.03.23.05.46.05.69,0,.04,0,.08,0,.13.02,0,.03,0,.05,0h1.45s0-.09,0-.13c0-.11,0-.22-.01-.34Z"/>
    </g>
  </g>
</svg>