<?xml version="1.0" encoding="UTF-8"?>
<svg id="Layer_2" data-name="Layer 2" xmlns="http://www.w3.org/2000/svg" viewBox="0 0 18.67 11.28">
  <defs>
    <style>
      .cls-1 {
        fill: #168aa5;
      }

      .cls-2 {
        fill: #d9ecf2;
      }

      .cls-3 {
        fill: #bdd9e5;
      }

      .cls-4 {
        fill: #26a3b9;
      }
    </style>
  </defs>
  <g id="Layer_1-2" data-name="Layer 1">
    <g>
      <path class="cls-2" d="m4.76,0c-1.02,0-1.87.71-2.1,1.66-.17-.08-.36-.12-.57-.12-.77,0-1.39.62-1.39,1.39s.62,1.39,1.39,1.39h2.67c1.19,0,2.16-.97,2.16-2.16s-.97-2.16-2.16-2.16Z"/>
      <path class="cls-3" d="m6.93,2.16c0-.81-.44-1.51-1.1-1.88-1.09.58-1.92,1.6-2.23,2.83-.39-.19-.83-.3-1.29-.3-.57,0-1.1.17-1.56.45.15.61.7,1.07,1.35,1.07h2.67c1.19,0,2.16-.97,2.16-2.16Z"/>
      <path class="cls-3" d="m2.1,1.54s-.05,0-.07,0c.07.77.63,1.04.63,1.04,0,0-.11-.31,0-.92-.17-.08-.36-.12-.57-.12Z"/>
      <path class="cls-4" d="m16.78,4.9c.01-.12.02-.23.02-.35,0-1.55-1.25-2.8-2.8-2.8-.66,0-1.27.23-1.75.62-.8-1.18-2.16-1.96-3.7-1.96-2.08,0-3.83,1.42-4.33,3.35-.39-.19-.83-.3-1.29-.3-1.62,0-2.94,1.32-2.94,2.94s1.32,2.94,2.94,2.94h13.49c1.23,0,2.23-1,2.23-2.23,0-1.12-.82-2.04-1.89-2.2Z"/>
      <path class="cls-1" d="m16.78,4.9c.01-.12.02-.23.02-.35,0-1.55-1.25-2.8-2.8-2.8-.25,0-.49.03-.72.09,1.2.31,2.09,1.4,2.09,2.7,0,.12,0,.24-.02.35,1.07.17,1.89,1.09,1.89,2.2,0,1.23-1,2.23-2.23,2.23h1.42c1.23,0,2.23-1,2.23-2.23,0-1.12-.82-2.04-1.89-2.2Z"/>
      <path class="cls-1" d="m14.09,6.25c-.3,0-.59.07-.85.18-.44-.92-1.38-1.56-2.48-1.56-1.41,0-2.57,1.06-2.73,2.43-.14-.04-.28-.06-.43-.06-.86,0-1.56.7-1.56,1.56,0,.19.04.37.1.54h9.72c.18-.3.28-.65.28-1.03,0-1.14-.92-2.06-2.06-2.06Z"/>
      <path class="cls-1" d="m3.21,3.46c.09,1.71,1.1,2.46,1.1,2.46,0,0-.31-.93-.07-2.17-.31-.15-.66-.26-1.03-.29Z"/>
      <path class="cls-2" d="m14.09,7.17c-.3,0-.59.07-.85.18-.44-.92-1.38-1.56-2.48-1.56-1.41,0-2.57,1.06-2.73,2.43-.14-.04-.28-.06-.43-.06-.86,0-1.56.7-1.56,1.56s.7,1.56,1.56,1.56h6.48c1.14,0,2.06-.92,2.06-2.06s-.92-2.06-2.06-2.06Z"/>
      <g>
        <path class="cls-3" d="m12.2,7.35c.26-.12.54-.18.85-.18.04,0,.07,0,.11,0-.47-.83-1.36-1.39-2.38-1.39-.18,0-.36.02-.53.05.87.17,1.59.74,1.96,1.51Z"/>
        <path class="cls-3" d="m14.09,7.17c-.18,0-.35.03-.52.07.88.23,1.53,1.03,1.53,1.98,0,1.14-.92,2.06-2.06,2.06h1.05c1.14,0,2.06-.92,2.06-2.06s-.92-2.06-2.06-2.06Z"/>
      </g>
      <path class="cls-3" d="m13.45,8.73s.66-.45.61-1.55c-.29,0-.56.07-.81.18.31.61.2,1.37.2,1.37Z"/>
    </g>
  </g>
</svg>