<?xml version="1.0" encoding="UTF-8"?>
<svg id="Layer_2" data-name="Layer 2" xmlns="http://www.w3.org/2000/svg" viewBox="0 0 19.23 16.39">
  <defs>
    <style>
      .cls-1 {
        fill: #168aa5;
      }

      .cls-2 {
        fill: #fabe02;
      }

      .cls-3 {
        fill: #bdd9e5;
      }

      .cls-4 {
        fill: #26a3b9;
      }

      .cls-5 {
        fill: #f59a1d;
      }
    </style>
  </defs>
  <g id="Layer_1-2" data-name="Layer 1">
    <g>
      <path class="cls-4" d="m17.34,4.5c.01-.12.02-.23.02-.35,0-1.55-1.25-2.8-2.8-2.8-.66,0-1.27.23-1.75.62-.8-1.18-2.16-1.96-3.7-1.96-2.08,0-3.83,1.42-4.33,3.35-.39-.19-.83-.3-1.29-.3-1.62,0-2.94,1.32-2.94,2.94s1.32,2.94,2.94,2.94h13.49c1.23,0,2.23-1,2.23-2.23,0-1.12-.82-2.04-1.89-2.2Z"/>
      <path class="cls-1" d="m9.2,6.09l-2.27,2.84h3.11l2.27-2.84h-3.11Z"/>
      <path class="cls-1" d="m17.34,4.5c.01-.12.02-.23.02-.35,0-1.55-1.25-2.8-2.8-2.8-.26,0-.52.04-.76.11,1.18.33,2.04,1.41,2.04,2.69,0,.12,0,.24-.02.35,1.07.17,1.89,1.09,1.89,2.2,0,1.23-1,2.23-2.23,2.23h1.52c1.23,0,2.23-1,2.23-2.23,0-1.12-.82-2.04-1.89-2.2Z"/>
      <path class="cls-1" d="m3.5,3.05c-.09,0-.18,0-.27.01.34,1.59,1.63,2.46,1.63,2.46,0,0-.31-.93-.07-2.17-.39-.19-.83-.3-1.29-.3Z"/>
      <polygon class="cls-2" points="14.63 10.26 12.63 10.26 10.68 12.7 12.39 12.7 10.47 15.11 15.08 12.08 13.17 12.08 14.63 10.26"/>
      <polygon class="cls-2" points="11.08 6.09 7.97 6.09 4.93 9.91 7.6 9.91 4.6 13.67 11.79 8.93 8.82 8.93 11.08 6.09"/>
      <g>
        <polygon class="cls-5" points="13.17 12.08 14.63 10.26 13.68 10.26 12.22 12.08 13.17 12.08"/>
        <polygon class="cls-5" points="14.13 12.08 11.52 13.8 10.47 15.11 15.08 12.08 14.13 12.08"/>
      </g>
      <g>
        <polygon class="cls-5" points="8.82 8.93 11.08 6.09 10.14 6.09 7.87 8.93 8.82 8.93"/>
        <polygon class="cls-5" points="10.84 8.93 5.65 12.35 4.6 13.67 11.79 8.93 10.84 8.93"/>
      </g>
      <g>
        <path class="cls-3" d="m.29,13.95c-.06,0-.13-.02-.18-.06-.12-.1-.14-.28-.05-.4l.74-.93c.1-.12.28-.14.4-.05.12.1.14.28.05.4l-.74.93c-.06.07-.14.11-.22.11Z"/>
        <path class="cls-4" d="m1.77,12.1c-.06,0-.13-.02-.18-.06-.12-.1-.14-.28-.05-.4l1.39-1.74c.1-.12.28-.14.4-.05.12.1.14.28.05.4l-1.39,1.74c-.06.07-.14.11-.22.11Z"/>
        <path class="cls-3" d="m.88,16.39c-.06,0-.13-.02-.18-.06-.12-.1-.14-.28-.05-.4l.89-1.11c.1-.12.28-.14.4-.04.12.1.14.28.05.4l-.89,1.11c-.06.07-.14.11-.22.11Z"/>
        <path class="cls-4" d="m2.46,14.4c-.06,0-.13-.02-.18-.06-.12-.1-.14-.28-.05-.4l.63-.79c.1-.12.28-.14.4-.04.12.1.14.28.05.4l-.63.79c-.06.07-.14.11-.22.11Z"/>
        <path class="cls-3" d="m3.8,12.73c-.06,0-.13-.02-.18-.06-.12-.1-.14-.28-.05-.4l1.2-1.51c.1-.12.28-.14.4-.05.12.1.14.28.05.4l-1.2,1.51c-.06.07-.14.11-.22.11Z"/>
        <path class="cls-3" d="m3.42,16.39c-.06,0-.13-.02-.18-.06-.12-.1-.14-.28-.05-.4l1.18-1.48c.1-.12.28-.14.4-.04.12.1.14.28.05.4l-1.18,1.48c-.06.07-.14.11-.22.11Z"/>
        <path class="cls-3" d="m5.96,16.39c-.06,0-.13-.02-.18-.06-.12-.1-.14-.28-.05-.4l1.59-1.99c.1-.12.28-.14.4-.04.12.1.14.28.05.4l-1.59,1.99c-.06.07-.14.11-.22.11Z"/>
        <path class="cls-4" d="m8.37,13.37c-.06,0-.13-.02-.18-.06-.12-.1-.14-.28-.04-.4l1.34-1.68c.1-.12.28-.14.4-.04s.14.28.05.4l-1.34,1.68c-.06.07-.14.11-.22.11Z"/>
        <path class="cls-3" d="m8.5,16.39c-.06,0-.13-.02-.18-.06-.12-.1-.14-.28-.05-.4l1.84-2.31c.1-.12.28-.14.4-.05.12.1.14.28.05.4l-1.84,2.31c-.06.07-.14.11-.22.11Z"/>
        <path class="cls-4" d="m11.04,16.39c-.06,0-.13-.02-.18-.06-.12-.1-.14-.28-.05-.4l.29-.36c.1-.12.28-.14.4-.05.12.1.14.28.05.4l-.29.37c-.06.07-.14.11-.22.11Z"/>
        <path class="cls-3" d="m14.95,11.49c-.06,0-.13-.02-.18-.06-.12-.1-.14-.28-.05-.4l.91-1.13c.1-.12.28-.14.4-.05.12.1.14.28.05.4l-.91,1.13c-.06.07-.14.11-.22.11Z"/>
        <path class="cls-3" d="m13.58,16.39c-.06,0-.13-.02-.18-.06-.12-.1-.14-.28-.05-.4l1.11-1.39c.1-.12.28-.14.4-.05.12.1.14.28.04.4l-1.11,1.39c-.06.07-.14.11-.22.11Z"/>
        <path class="cls-4" d="m15.29,14.24c-.06,0-.13-.02-.18-.06-.12-.1-.14-.28-.05-.4l.31-.38c.1-.12.28-.14.4-.04.12.1.14.28.05.4l-.31.38c-.06.07-.14.11-.22.11Z"/>
        <path class="cls-4" d="m16.35,12.92c-.06,0-.13-.02-.18-.06-.12-.1-.14-.28-.05-.4l1.35-1.69c.1-.12.28-.14.4-.05s.14.28.05.4l-1.35,1.69c-.06.07-.14.11-.22.11Z"/>
      </g>
    </g>
  </g>
</svg>