<?xml version="1.0" encoding="UTF-8"?>
<svg id="Layer_2" data-name="Layer 2" xmlns="http://www.w3.org/2000/svg" viewBox="0 0 16.01 17.63">
  <defs>
    <style>
      .cls-1 {
        fill: #fabe02;
      }

      .cls-2 {
        fill: #d9ecf2;
      }

      .cls-3 {
        fill: #bdd9e5;
      }

      .cls-4 {
        fill: #f59a1d;
      }
    </style>
  </defs>
  <g id="Layer_1-2" data-name="Layer 1">
    <g>
      <path class="cls-2" d="m7.02,9.89c-1.94-3.17-1.64-7.07.43-9.89-1.1.18-2.19.57-3.2,1.18C.07,3.74-1.25,9.2,1.3,13.38c2.55,4.18,8.01,5.5,12.19,2.95,1.01-.62,1.85-1.41,2.52-2.3-3.45.56-7.06-.96-9-4.13Z"/>
      <path class="cls-3" d="m7.02,9.89c-1.94-3.17-1.64-7.07.43-9.89-1.07.17-2.12.55-3.11,1.13.39-.12.79-.22,1.2-.28-2.08,2.82-2.37,6.72-.43,9.89,1.94,3.17,5.54,4.69,9,4.13-.66.9-1.5,1.69-2.52,2.3-.03.02-.07.04-.1.06.69-.21,1.37-.51,2.01-.91,1.01-.62,1.85-1.41,2.52-2.3-3.45.56-7.06-.96-9-4.13Z"/>
      <path class="cls-2" d="m9.27,12.37c-.29.39-.34.93-.07,1.37.35.57,1.1.75,1.67.4.24-.15.41-.37.5-.61-.74-.29-1.45-.67-2.1-1.16Z"/>
      <path class="cls-3" d="m6.32,17.25c.19-.45.18-.98-.1-1.43-.45-.73-1.41-.97-2.14-.52-.23.14-.41.33-.53.55.84.63,1.78,1.1,2.77,1.4Z"/>
      <path class="cls-3" d="m2.47,9.26c-.35-.58-.17-1.33.41-1.68.58-.35,1.33-.17,1.68.41.35.58.17,1.33-.41,1.68-.58.35-1.33.17-1.68-.41Z"/>
      <path class="cls-3" d="m6.46,1.72l-2.83,1.73c-.33.2-.44.64-.23.97.2.33.64.44.97.23l1.5-.91c.12-.69.32-1.37.6-2.02Z"/>
      <path class="cls-2" d="m6.46,1.72l-2.08,1.27c-.21.57-.37,1.16-.46,1.76.15.02.31-.01.45-.1l1.49-.91c.12-.69.32-1.37.61-2.02Z"/>
      <path class="cls-3" d="m1.99,14.35l2.04-1.24c.33-.2.44-.64.23-.97-.2-.33-.64-.44-.97-.23l-2.1,1.28c.04.06.07.13.11.19.21.34.44.67.69.97Z"/>
    </g>
    <polygon class="cls-1" points="13.07 4.6 11.74 4.76 12.41 3.61 11.85 2.39 13.16 2.68 14.13 1.77 14.26 3.1 15.43 3.75 14.21 4.28 13.95 5.6 13.07 4.6"/>
    <polygon class="cls-4" points="14.26 3.1 14.13 1.77 13.59 3.33 14.22 3.72 13.51 4.15 13.95 5.6 14.21 4.28 15.43 3.75 14.26 3.1"/>
    <g>
      <polygon class="cls-1" points="11.42 9.77 10.72 10.56 10.52 9.52 9.56 9.09 10.48 8.59 10.59 7.53 11.36 8.26 12.39 8.04 11.94 8.99 12.47 9.9 11.42 9.77"/>
      <polygon class="cls-4" points="10.59 7.53 11.01 8.81 11.74 8.62 11.37 9.19 12.47 9.9 11.94 8.99 12.39 8.04 11.36 8.26 10.59 7.53"/>
    </g>
  </g>
</svg>