<?xml version="1.0" encoding="UTF-8"?>
<svg id="Layer_2" data-name="Layer 2" xmlns="http://www.w3.org/2000/svg" viewBox="0 0 19.55 13.41">
  <defs>
    <style>
      .cls-1 {
        fill: #168aa5;
      }

      .cls-2 {
        fill: #fabe02;
      }

      .cls-3 {
        fill: #d9ecf2;
      }

      .cls-4 {
        fill: #bdd9e5;
      }

      .cls-5 {
        fill: #26a3b9;
      }

      .cls-6 {
        fill: #ff414d;
      }

      .cls-7 {
        fill: #d8283f;
      }

      .cls-8 {
        fill: #b41d6c;
      }

      .cls-9 {
        fill: #f59a1d;
      }

      .cls-10 {
        fill: #93134a;
      }
    </style>
  </defs>
  <g id="Layer_1-2" data-name="Layer 1">
    <g>
      <path class="cls-8" d="m8.19,0s-.08,0-.13,0c-.04,0-.08,0-.13,0C3.55,0,0,3.55,0,7.94h3.97c0-2.19,1.78-3.97,3.97-3.97.04,0,.08,0,.13,0,.04,0,.08,0,.13,0,2.19,0,3.97,1.78,3.97,3.97h3.97c0-4.38-3.55-7.94-7.94-7.94Z"/>
      <g>
        <path class="cls-10" d="m7.67,3.97s-.08,0-.13,0c-.04,0-.08,0-.13,0-2.19,0-3.97,1.78-3.97,3.97h.52c0-2.15,1.71-3.9,3.84-3.97-.04,0-.09,0-.13,0Z"/>
        <path class="cls-10" d="m8.19,0s-.08,0-.13,0c-.04,0-.08,0-.13,0s-.09,0-.13,0c4.32.07,7.81,3.59,7.81,7.93h.52c0-4.38-3.55-7.94-7.94-7.94Z"/>
      </g>
      <path class="cls-6" d="m12.87,3.26c-1.2-1.2-2.85-1.94-4.68-1.94-.04,0-.08,0-.13,0-.04,0-.08,0-.13,0-1.83,0-3.48.74-4.68,1.94-1.2,1.2-1.94,2.85-1.94,4.68h2.64c0-2.19,1.78-3.97,3.97-3.97.04,0,.08,0,.13,0,.04,0,.08,0,.13,0,2.19,0,3.97,1.78,3.97,3.97h2.64c0-1.83-.74-3.48-1.94-4.68Z"/>
      <g>
        <path class="cls-7" d="m7.67,3.97s-.08,0-.13,0c-.04,0-.08,0-.13,0-2.19,0-3.97,1.78-3.97,3.97h.52c0-2.15,1.71-3.9,3.84-3.97-.04,0-.09,0-.13,0Z"/>
        <path class="cls-7" d="m12.87,3.26c-1.2-1.2-2.85-1.94-4.68-1.94-.04,0-.08,0-.13,0-.04,0-.08,0-.13,0s-.09,0-.13,0c1.77.03,3.38.77,4.55,1.93,1.2,1.2,1.94,2.85,1.94,4.68h.52c0-1.83-.74-3.48-1.94-4.68Z"/>
      </g>
      <path class="cls-2" d="m8.19,2.65s-.08,0-.13,0c-.04,0-.08,0-.13,0-2.92,0-5.29,2.37-5.29,5.29h1.32c0-2.19,1.78-3.97,3.97-3.97.04,0,.08,0,.13,0,.04,0,.08,0,.13,0,2.19,0,3.97,1.78,3.97,3.97h1.32c0-2.92-2.37-5.29-5.29-5.29Z"/>
      <g>
        <path class="cls-9" d="m8.19,2.65s-.08,0-.13,0c-.04,0-.08,0-.13,0s-.09,0-.13,0c2.86.07,5.16,2.41,5.16,5.29h.52c0-2.92-2.37-5.29-5.29-5.29Z"/>
        <path class="cls-9" d="m7.67,3.97s-.08,0-.13,0c-.04,0-.08,0-.13,0-2.19,0-3.97,1.78-3.97,3.97h.52c0-2.15,1.71-3.9,3.84-3.97-.04,0-.09,0-.13,0Z"/>
      </g>
      <g>
        <path class="cls-3" d="m6.18,8.72c-.01-.09-.02-.18-.02-.28,0-1.23,1-2.23,2.23-2.23.53,0,1.01.18,1.39.49.64-.94,1.72-1.56,2.94-1.56,1.66,0,3.05,1.13,3.44,2.67.31-.15.66-.24,1.03-.24,1.29,0,2.34,1.05,2.34,2.34s-1.05,2.34-2.34,2.34H6.46c-.98,0-1.78-.8-1.78-1.78,0-.89.65-1.62,1.5-1.75Z"/>
        <path class="cls-4" d="m6.69,12.25h1.71c-.19-.59-.86-1.56-.86-1.56,0,0-.67.97-.86,1.56Z"/>
        <g>
          <path class="cls-4" d="m17.2,7.57c-.2,0-.38.03-.56.07,1.02.25,1.78,1.17,1.78,2.27,0,1.29-1.05,2.34-2.34,2.34h1.13c1.29,0,2.34-1.05,2.34-2.34s-1.05-2.34-2.34-2.34Z"/>
          <path class="cls-4" d="m15.04,7.81c.31-.15.66-.24,1.03-.24,0,0,.02,0,.03,0-.47-1.41-1.8-2.43-3.37-2.43-.19,0-.38.02-.56.05,1.4.22,2.53,1.27,2.88,2.62Z"/>
        </g>
        <path class="cls-4" d="m16.12,9.53s.79-.65.85-1.95c-.28.03-.55.11-.79.23.19.98-.06,1.73-.06,1.73Z"/>
      </g>
      <path class="cls-4" d="m13.99,12.25c-.19-.59-.86-1.56-.86-1.56,0,0-.67.97-.86,1.56h1.71Z"/>
      <path class="cls-5" d="m7.89,12.5c0,.5-.41.91-.91.91s-.91-.41-.91-.91.91-1.81.91-1.81c0,0,.91,1.31.91,1.81Z"/>
      <path class="cls-5" d="m13.47,12.5c0,.5-.41.91-.91.91s-.91-.41-.91-.91.91-1.81.91-1.81c0,0,.91,1.31.91,1.81Z"/>
      <path class="cls-1" d="m6.98,10.69s-.12.17-.26.4c.27.43.64,1.08.64,1.41,0,.41-.27.75-.64.87.08.03.17.04.26.04.5,0,.91-.41.91-.91s-.91-1.81-.91-1.81Z"/>
      <path class="cls-1" d="m12.56,10.69s-.12.17-.26.4c.27.43.64,1.08.64,1.41,0,.41-.27.75-.64.87.08.03.17.04.26.04.5,0,.91-.41.91-.91s-.91-1.81-.91-1.81Z"/>
    </g>
  </g>
</svg>