<?xml version="1.0" encoding="UTF-8"?>
<svg id="Layer_2" data-name="Layer 2" xmlns="http://www.w3.org/2000/svg" viewBox="0 0 18.67 17.39">
  <defs>
    <style>
      .cls-1 {
        fill: #168aa5;
      }

      .cls-2 {
        fill: #fabe02;
      }

      .cls-3 {
        fill: #d9ecf2;
      }

      .cls-4 {
        fill: #bdd9e5;
      }

      .cls-5 {
        fill: #26a3b9;
      }

      .cls-6 {
        fill: #f59a1d;
      }
    </style>
  </defs>
  <g id="Layer_1-2" data-name="Layer 1">
    <g>
      <path class="cls-3" d="m12.08,0c1.02,0,1.87.71,2.1,1.66.17-.08.36-.12.57-.12.77,0,1.39.62,1.39,1.39s-.62,1.39-1.39,1.39h-2.67c-1.19,0-2.16-.97-2.16-2.16s.97-2.16,2.16-2.16Z"/>
      <path class="cls-4" d="m14.75,1.54c-.12,0-.23.02-.34.04.6.15,1.05.7,1.05,1.35,0,.77-.62,1.39-1.39,1.39h.68c.77,0,1.39-.62,1.39-1.39s-.62-1.39-1.39-1.39Z"/>
      <path class="cls-4" d="m14.01,2.65c-.66,0-1.27.23-1.75.62-.54-.79-1.32-1.4-2.25-1.72-.06.2-.09.4-.09.62,0,1.19.97,2.16,2.16,2.16h2.67c.56,0,1.05-.34,1.27-.82-.51-.53-1.22-.86-2.01-.86Z"/>
      <path class="cls-4" d="m14.18,2.58s.42-.33.58-1.04c0,0-.01,0-.02,0-.2,0-.39.04-.57.12.11.61,0,.92,0,.92Z"/>
      <path class="cls-5" d="m16.78,6.66c.01-.12.02-.23.02-.35,0-1.55-1.25-2.8-2.8-2.8-.66,0-1.27.23-1.75.62-.8-1.18-2.16-1.96-3.7-1.96-2.08,0-3.83,1.42-4.33,3.35-.39-.19-.83-.3-1.29-.3-1.62,0-2.94,1.32-2.94,2.94s1.32,2.94,2.94,2.94h13.49c1.23,0,2.23-1,2.23-2.23,0-1.12-.82-2.04-1.89-2.2Z"/>
      <path class="cls-1" d="m8.45,8.25l-2.27,2.84h3.11l2.27-2.84h-3.11Z"/>
      <path class="cls-1" d="m16.78,6.66c.01-.12.02-.23.02-.35,0-1.55-1.25-2.8-2.8-2.8-.19,0-.38.02-.57.06,1.27.27,2.22,1.39,2.22,2.74,0,.12,0,.24-.02.35,1.07.17,1.89,1.09,1.89,2.2,0,1.23-1,2.23-2.23,2.23h1.14c1.23,0,2.23-1,2.23-2.23,0-1.12-.82-2.04-1.89-2.2Z"/>
      <path class="cls-1" d="m3.29,5.23c.14,1.49,1.02,2.45,1.02,2.45,0,0-.31-.93-.07-2.17-.29-.14-.61-.24-.95-.28Z"/>
      <polygon class="cls-2" points="14.16 12.42 12.12 12.42 10.13 14.92 11.88 14.92 9.91 17.39 14.63 14.28 12.68 14.28 14.16 12.42"/>
      <polygon class="cls-2" points="10.53 8.25 7.42 8.25 4.37 12.07 7.04 12.07 4.04 15.83 11.24 11.1 8.26 11.1 10.53 8.25"/>
      <g>
        <polygon class="cls-6" points="13.89 14.28 10.73 16.37 9.91 17.39 14.63 14.28 13.89 14.28"/>
        <polygon class="cls-6" points="12.68 14.28 14.16 12.42 13.43 12.42 11.94 14.28 12.68 14.28"/>
      </g>
      <g>
        <polygon class="cls-6" points="8.26 11.1 10.53 8.25 9.49 8.25 7.22 11.1 8.26 11.1"/>
        <polygon class="cls-6" points="10.2 11.1 5.19 14.39 4.04 15.83 11.24 11.1 10.2 11.1"/>
      </g>
    </g>
  </g>
</svg>