<?xml version="1.0" encoding="UTF-8"?>
<svg id="Layer_2" data-name="Layer 2" xmlns="http://www.w3.org/2000/svg" viewBox="0 0 19.36 16.72">
  <defs>
    <style>
      .cls-1 {
        fill: #168aa5;
      }

      .cls-2 {
        fill: #fabe02;
      }

      .cls-3 {
        fill: #26a3b9;
      }

      .cls-4 {
        fill: #f59a1d;
      }
    </style>
  </defs>
  <g id="Layer_1-2" data-name="Layer 1">
    <g>
      <path class="cls-2" d="m12.11,2.54c-2.6,0-4.71,2.11-4.71,4.71s2.11,4.71,4.71,4.71,4.71-2.11,4.71-4.71-2.11-4.71-4.71-4.71Z"/>
      <path class="cls-4" d="m12.11,2.54c-.22,0-.44.02-.66.05,2.29.32,4.05,2.29,4.05,4.66s-1.76,4.34-4.05,4.66c.22.03.44.05.66.05,2.6,0,4.71-2.11,4.71-4.71s-2.11-4.71-4.71-4.71Z"/>
      <path class="cls-4" d="m14.01,8.06c-.66,0-1.27.23-1.75.62-.8-1.18-2.16-1.96-3.7-1.96-.39,0-.78.05-1.14.15-.01.13-.02.26-.02.39,0,2.6,2.11,4.71,4.71,4.71,1.86,0,3.46-1.08,4.23-2.64-.5-.76-1.36-1.26-2.34-1.26Z"/>
      <path class="cls-2" d="m12.11,1.72c-.16,0-.29-.13-.29-.29V.29c0-.16.13-.29.29-.29s.29.13.29.29v1.14c0,.16-.13.29-.29.29Z"/>
      <path class="cls-2" d="m9.2,2.49c-.1,0-.19-.05-.25-.14l-.57-.99c-.08-.14-.03-.31.1-.39.14-.08.31-.03.39.1l.57.99c.08.14.03.31-.1.39-.04.03-.09.04-.14.04Z"/>
      <path class="cls-2" d="m7.07,4.62s-.1-.01-.14-.04l-.99-.57c-.14-.08-.18-.25-.1-.39.08-.14.25-.18.39-.1l.99.57c.14.08.18.25.1.39-.05.09-.15.14-.25.14Z"/>
      <path class="cls-2" d="m17.15,4.62c-.1,0-.19-.05-.25-.14-.08-.14-.03-.31.1-.39l.99-.57c.14-.08.31-.03.39.1.08.14.03.31-.1.39l-.99.57s-.09.04-.14.04Z"/>
      <path class="cls-2" d="m15.02,2.49s-.1-.01-.14-.04c-.14-.08-.18-.25-.1-.39l.57-.99c.08-.14.25-.18.39-.1.14.08.18.25.1.39l-.57.99c-.05.09-.15.14-.25.14Z"/>
      <path class="cls-2" d="m12.11,14.5c-.16,0-.29-.13-.29-.29v-1.14c0-.16.13-.29.29-.29s.29.13.29.29v1.14c0,.16-.13.29-.29.29Z"/>
      <path class="cls-2" d="m19.08,7.53h-1.14c-.16,0-.29-.13-.29-.29s.13-.29.29-.29h1.14c.16,0,.29.13.29.29s-.13.29-.29.29Z"/>
      <path class="cls-2" d="m6.29,7.53h-1.14c-.16,0-.29-.13-.29-.29s.13-.29.29-.29h1.14c.16,0,.29.13.29.29s-.13.29-.29.29Z"/>
      <path class="cls-2" d="m15.59,13.56c-.1,0-.19-.05-.25-.14l-.57-.99c-.08-.14-.03-.31.1-.39s.31-.03.39.1l.57.99c.08.14.03.31-.1.39-.04.03-.09.04-.14.04Z"/>
      <path class="cls-2" d="m18.14,11.02s-.1-.01-.14-.04l-.99-.57c-.14-.08-.18-.25-.1-.39s.25-.18.39-.1l.99.57c.14.08.18.25.1.39-.05.09-.15.14-.25.14Z"/>
      <path class="cls-2" d="m6.08,11.02c-.1,0-.19-.05-.25-.14-.08-.14-.03-.31.1-.39l.99-.57c.14-.08.31-.03.39.1.08.14.03.31-.1.39l-.99.57s-.09.04-.14.04Z"/>
      <path class="cls-2" d="m8.63,13.56s-.1-.01-.14-.04c-.14-.08-.18-.25-.1-.39l.57-.99c.08-.14.25-.18.39-.1s.18.25.1.39l-.57.99c-.05.09-.15.14-.25.14Z"/>
    </g>
    <g>
      <path class="cls-3" d="m16.78,12.28c.01-.12.02-.23.02-.35,0-1.55-1.25-2.8-2.8-2.8-.66,0-1.27.23-1.75.62-.8-1.18-2.16-1.96-3.7-1.96-2.08,0-3.83,1.42-4.33,3.35-.39-.19-.83-.3-1.29-.3-1.62,0-2.94,1.32-2.94,2.94s1.32,2.94,2.94,2.94h13.49c1.23,0,2.23-1,2.23-2.23,0-1.12-.82-2.04-1.89-2.2Z"/>
      <path class="cls-1" d="m16.78,12.28c.01-.12.02-.23.02-.35,0-1.55-1.25-2.8-2.8-2.8-.29,0-.58.05-.84.13,1.13.36,1.95,1.42,1.95,2.67,0,.12,0,.24-.02.35,1.07.17,1.89,1.09,1.89,2.2,0,1.23-1,2.23-2.23,2.23h1.69c1.23,0,2.23-1,2.23-2.23,0-1.12-.82-2.04-1.89-2.2Z"/>
      <path class="cls-1" d="m2.96,10.84c.23,1.83,1.35,2.47,1.35,2.47,0,0-.31-.93-.07-2.17-.39-.19-.82-.3-1.27-.3Z"/>
    </g>
  </g>
</svg>