<?xml version="1.0" encoding="UTF-8"?>
<svg id="Layer_2" data-name="Layer 2" xmlns="http://www.w3.org/2000/svg" viewBox="0 0 18.55 11.37">
  <defs>
    <style>
      .cls-1 {
        fill: #168aa5;
      }

      .cls-2 {
        fill: #d9ecf2;
      }

      .cls-3 {
        fill: #bdd9e5;
      }

      .cls-4 {
        fill: #26a3b9;
      }
    </style>
  </defs>
  <g id="Layer_1-2" data-name="Layer 1">
    <g>
      <g>
        <path class="cls-2" d="m15.29,2.5c-.51,0-.98.12-1.41.32-.67-1.66-2.29-2.83-4.18-2.83-2,0-3.7,1.3-4.29,3.11-1.15,0-2.14.66-2.63,1.62-.1-.02-.21-.03-.32-.03-1.19,0-2.16.97-2.16,2.16s.97,2.16,2.16,2.16h12.83c1.8,0,3.26-1.46,3.26-3.26s-1.46-3.26-3.26-3.26Z"/>
        <g>
          <path class="cls-3" d="m12.87,3.01c.23-.11.76-.19,1.01-.18-.04-.08-.11-.25-.13-.29-.73-1.5-2.27-2.53-4.05-2.53-.18,0-.36.01-.54.04,1.66.2,3.11,1.48,3.71,2.97Z"/>
          <path class="cls-3" d="m15.29,2.5c-.19,0-.37.02-.55.05,1.54.26,2.72,1.59,2.72,3.21,0,1.8-1.46,3.26-3.26,3.26h1.09c1.8,0,3.26-1.46,3.26-3.26s-1.46-3.26-3.26-3.26Z"/>
        </g>
        <path class="cls-3" d="m17.46,8.19c-.27-.47-.78-.79-1.36-.79-.24,0-.46.06-.67.15-.02-1.61-1.33-2.92-2.95-2.92-1.39,0-2.55.96-2.86,2.25-.22-.09-.47-.14-.72-.14-1.05,0-1.9.85-1.9,1.9,0,.13.01.26.04.38h8.26c.83,0,1.59-.32,2.17-.83Z"/>
        <path class="cls-3" d="m4.29,3.34c.17,1.32,1.37,1.8,1.37,1.8,0,0-.65-.8-.25-2.03-.4,0-.78.08-1.12.23Z"/>
      </g>
      <g>
        <path class="cls-4" d="m16.11,8.24c-.24,0-.46.05-.67.15-.02-1.61-1.33-2.92-2.95-2.92-1.39,0-2.55.96-2.86,2.25-.22-.09-.47-.14-.72-.14-1.05,0-1.9.85-1.9,1.9s.85,1.9,1.9,1.9h7.21c.87,0,1.57-.7,1.57-1.57s-.7-1.57-1.57-1.57Z"/>
        <g>
          <path class="cls-1" d="m14.48,8.39c.59-.15.91,0,.96,0,0,0,0-.07,0-.12-.08-1.56-1.37-2.8-2.94-2.8-.17,0-.33.01-.49.04,1.4.22,2.46,1.42,2.48,2.88Z"/>
          <path class="cls-1" d="m16.11,8.24c-.17,0-.33.03-.47.08.63.2,1.09.79,1.09,1.49,0,.87-.7,1.57-1.57,1.57h.96c.87,0,1.57-.7,1.57-1.57s-.7-1.57-1.57-1.57Z"/>
        </g>
        <path class="cls-1" d="m9.12,7.59c-.25,1.28.8,1.78.8,1.78,0,0-.56-.52-.29-1.65-.16-.07-.33-.11-.5-.13Z"/>
      </g>
      <path class="cls-4" d="m3.42.77H1.11c-.16,0-.29-.13-.29-.29s.13-.29.29-.29h2.31c.16,0,.29.13.29.29s-.13.29-.29.29Z"/>
      <path class="cls-4" d="m5.6.77h-1.02c-.16,0-.29-.13-.29-.29s.13-.29.29-.29h1.02c.16,0,.29.13.29.29s-.13.29-.29.29Z"/>
      <path class="cls-4" d="m4.67,2.23H1.86c-.16,0-.29-.13-.29-.29s.13-.29.29-.29h2.81c.16,0,.29.13.29.29s-.13.29-.29.29Z"/>
      <path class="cls-2" d="m1.93,3.5H.29c-.16,0-.29-.13-.29-.29s.13-.29.29-.29h1.64c.16,0,.29.13.29.29s-.13.29-.29.29Z"/>
    </g>
  </g>
</svg>