<?xml version="1.0" encoding="UTF-8"?>
<svg id="Layer_2" data-name="Layer 2" xmlns="http://www.w3.org/2000/svg" viewBox="0 0 18.87 13.87">
  <defs>
    <style>
      .cls-1 {
        fill: #fabe02;
      }

      .cls-2 {
        fill: #d9ecf2;
      }

      .cls-3 {
        fill: #bdd9e5;
      }

      .cls-4 {
        fill: #ff414d;
      }

      .cls-5 {
        fill: #d8283f;
      }

      .cls-6 {
        fill: #b41d6c;
      }

      .cls-7 {
        fill: #f59a1d;
      }

      .cls-8 {
        fill: #93134a;
      }
    </style>
  </defs>
  <g id="Layer_1-2" data-name="Layer 1">
    <g>
      <path class="cls-6" d="m9.1,0c-2.14,0-4.07.87-5.47,2.27l.91.91h0l1.82,1.82c.7-.7,1.67-1.13,2.73-1.13,2.14,0,3.87,1.73,3.87,3.87v3.24h3.87v-3.24h0c0-4.27-3.46-7.73-7.74-7.73Z"/>
      <g>
        <path class="cls-8" d="m8.56,3.87c-.93,0-1.78.33-2.45.88l.26.26c.64-.64,1.5-1.06,2.46-1.12-.09,0-.18-.01-.27-.01Z"/>
        <path class="cls-8" d="m9.1,0c-.09,0-.18,0-.27,0,4.15.14,7.47,3.55,7.47,7.73h0v3.24h.54v-3.24h0c0-4.27-3.46-7.73-7.74-7.73Z"/>
      </g>
      <path class="cls-4" d="m9.1,1.29c-1.78,0-3.39.72-4.56,1.89l1.82,1.82c.7-.7,1.67-1.13,2.73-1.13,2.14,0,3.87,1.73,3.87,3.87v3.24h2.58v-3.24h0c0-3.56-2.89-6.44-6.45-6.44Z"/>
      <g>
        <path class="cls-5" d="m9.1,1.29c-.08,0-.16,0-.24,0,3.45.13,6.2,2.96,6.2,6.44h0v3.24h.49v-3.24h0c0-3.56-2.89-6.44-6.45-6.44Z"/>
        <path class="cls-5" d="m8.62,3.87c-.94,0-1.81.34-2.48.9l.23.23c.65-.65,1.52-1.06,2.49-1.12-.08,0-.16,0-.24,0Z"/>
      </g>
      <path class="cls-1" d="m9.1,2.58c-1.42,0-2.71.58-3.65,1.51l.91.91c.7-.7,1.67-1.13,2.73-1.13,2.14,0,3.87,1.73,3.87,3.87v3.24h1.29v-3.24c0-2.85-2.31-5.16-5.16-5.16Z"/>
      <g>
        <path class="cls-7" d="m8.68,3.87c-.96,0-1.84.35-2.52.93l.2.2c.65-.65,1.54-1.07,2.53-1.13-.07,0-.14,0-.21,0Z"/>
        <path class="cls-7" d="m9.1,2.58c-.07,0-.14,0-.21,0,2.75.11,4.95,2.37,4.95,5.15v3.24h.42v-3.24c0-2.85-2.31-5.16-5.16-5.16Z"/>
      </g>
      <g>
        <path class="cls-2" d="m1.38,3.14c.26,0,.51.08.72.2.23-.87,1.02-1.51,1.96-1.51,1.04,0,1.89.78,2.01,1.78.09-.02.18-.03.27-.03.64,0,1.16.52,1.16,1.16s-.52,1.16-1.16,1.16H1.38c-.76,0-1.38-.62-1.38-1.38s.62-1.38,1.38-1.38Z"/>
        <path class="cls-3" d="m6.35,3.58c-.09,0-.19.01-.27.03-.12-1-.98-1.78-2.01-1.78-.15,0-.3.02-.45.05.83.19,1.46.88,1.57,1.73.09-.02.18-.03.27-.03.64,0,1.16.52,1.16,1.16s-.52,1.16-1.16,1.16h.9c.64,0,1.16-.52,1.16-1.16s-.52-1.16-1.16-1.16Z"/>
        <path class="cls-3" d="m2.44,2.65c-.15.2-.27.44-.34.69.52.31.52.96.52.96,0,0,.18-.94-.18-1.65Z"/>
      </g>
      <g>
        <path class="cls-2" d="m11.73,10.66c.31,0,.6.09.84.24.27-1.01,1.19-1.76,2.29-1.76,1.21,0,2.21.91,2.35,2.08.1-.03.21-.04.32-.04.74,0,1.35.6,1.35,1.35s-.6,1.35-1.35,1.35h-5.8c-.89,0-1.61-.72-1.61-1.61s.72-1.61,1.61-1.61Z"/>
        <path class="cls-3" d="m17.53,11.17c-.11,0-.22.01-.32.04-.14-1.17-1.14-2.08-2.35-2.08-.18,0-.36.02-.53.06.96.22,1.7,1.02,1.82,2.02.1-.03.21-.04.32-.04.74,0,1.35.6,1.35,1.35s-.6,1.35-1.35,1.35h1.05c.74,0,1.35-.6,1.35-1.35s-.6-1.35-1.35-1.35Z"/>
        <path class="cls-3" d="m13.07,9.95c-.23.27-.41.59-.5.94.6.36.6,1.12.6,1.12,0,0,.28-1.06-.1-2.06Z"/>
      </g>
      <g>
        <path class="cls-2" d="m8.02,8.66c-.2,0-.39.06-.55.16-.17-.66-.77-1.14-1.49-1.14-.79,0-1.43.59-1.53,1.35-.07-.02-.14-.03-.21-.03-.48,0-.88.39-.88.88s.39.88.88.88h3.77c.58,0,1.04-.47,1.04-1.04s-.47-1.04-1.04-1.04Z"/>
        <g>
          <path class="cls-3" d="m7.43,8.67s0-.01,0-.02c0,0,0-.01,0-.02,0,0,0,0,0,0-.23-.56-.78-.95-1.42-.95-.08,0-.17,0-.25.02.36.06.71.28.96.6.2.26.3.59.33.93.01.18.05.32.05.32,0,0,0-.49.39-.73-.01-.05-.03-.1-.05-.15,0,0,0,0,0,0Z"/>
          <path class="cls-3" d="m8.02,8.66c-.09,0-.17.01-.25.03.45.11.79.52.79,1.01,0,.58-.47,1.04-1.04,1.04h.5c.58,0,1.04-.47,1.04-1.04s-.47-1.04-1.04-1.04Z"/>
        </g>
      </g>
    </g>
  </g>
</svg>