<?xml version="1.0" encoding="UTF-8"?>
<svg id="Layer_2" data-name="Layer 2" xmlns="http://www.w3.org/2000/svg" viewBox="0 0 18.67 14.24">
  <defs>
    <style>
      .cls-1 {
        fill: #168aa5;
      }

      .cls-2 {
        fill: #d9ecf2;
      }

      .cls-3 {
        fill: #bdd9e5;
      }

      .cls-4 {
        fill: #26a3b9;
      }
    </style>
  </defs>
  <g id="Layer_1-2" data-name="Layer 1">
    <g>
      <path class="cls-2" d="m3.21,4.7c.41,0,.79.09,1.13.26.03-2.74,2.26-4.96,5.01-4.96,2.36,0,4.33,1.63,4.87,3.82.38-.16.79-.24,1.23-.24,1.78,0,3.23,1.44,3.23,3.23s-1.44,3.23-3.23,3.23H3.21c-1.47,0-2.66-1.19-2.66-2.66s1.19-2.66,2.66-2.66Z"/>
      <g>
        <path class="cls-3" d="m8,5.4c0,.28.22.5.5.5s.5-.22.5-.5c0-.88.72-1.6,1.6-1.6s1.6.72,1.6,1.6-.72,1.6-1.6,1.6h-3.84c-.28,0-.5.22-.5.5s.22.5.5.5h3.84c1.44,0,2.61-1.17,2.61-2.61s-1.17-2.61-2.61-2.61-2.61,1.17-2.61,2.61Z"/>
        <path class="cls-3" d="m4.35,9.54c0-.28-.22-.5-.5-.5H1.17s-.02,0-.03,0c.49.6,1.23.99,2.07.99h.75c.22-.05.39-.25.39-.49Z"/>
        <path class="cls-3" d="m16.14,7.92h-1.78c-.28,0-.5.22-.5.5s.22.5.5.5h1.78c.28,0,.5-.22.5-.5s-.22-.5-.5-.5Z"/>
        <path class="cls-3" d="m11.67,9.03h-5.79c-.28,0-.5.22-.5.5s.22.5.5.5h5.79s0,0,0,0h2.05c-.48-.61-1.22-1-2.05-1Z"/>
        <path class="cls-3" d="m2.96,8h1.78c.28,0,.5-.22.5-.5s-.22-.5-.5-.5h-1.78c-.28,0-.5.22-.5.5s.22.5.5.5Z"/>
      </g>
      <g>
        <path class="cls-3" d="m12.82,3.82c.38-.16.79-.24,1.23-.24.04,0,.07,0,.11,0-.62-2.07-2.53-3.58-4.8-3.58-.24,0-.47.02-.7.05,2.04.29,3.68,1.8,4.16,3.77Z"/>
        <path class="cls-3" d="m15.45,3.58c-.24,0-.47.03-.7.08,1.44.32,2.52,1.61,2.52,3.15,0,1.78-1.44,3.23-3.23,3.23h1.4c1.78,0,3.23-1.44,3.23-3.23s-1.44-3.23-3.23-3.23Z"/>
      </g>
      <path class="cls-3" d="m13.72,6.63s1.62-.84,1.91-3.04c-.06,0-.12,0-.19,0-.44,0-.85.09-1.23.24.45,1.92-.5,2.81-.5,2.81Z"/>
      <g>
        <path class="cls-4" d="m3.18,10.04H.5c-.28,0-.5-.22-.5-.5s.22-.5.5-.5h2.68c.28,0,.5.22.5.5s-.22.5-.5.5Z"/>
        <path class="cls-4" d="m4.07,8h-1.78c-.28,0-.5-.22-.5-.5s.22-.5.5-.5h1.78c.28,0,.5.22.5.5s-.22.5-.5.5Z"/>
        <path class="cls-4" d="m15.47,8.93h-1.78c-.28,0-.5-.22-.5-.5s.22-.5.5-.5h1.78c.28,0,.5.22.5.5s-.22.5-.5.5Z"/>
        <path class="cls-4" d="m11,14.24c-1.44,0-2.61-1.17-2.61-2.61,0-.28.22-.5.5-.5s.5.22.5.5c0,.88.72,1.6,1.6,1.6s1.6-.72,1.6-1.6-.72-1.6-1.6-1.6h-5.79c-.28,0-.5-.22-.5-.5s.22-.5.5-.5h5.79c1.44,0,2.61,1.17,2.61,2.61s-1.17,2.61-2.61,2.61Z"/>
        <path class="cls-4" d="m9.94,2.79c-1.44,0-2.61,1.17-2.61,2.61,0,.28.22.5.5.5s.5-.22.5-.5c0-.88.72-1.6,1.6-1.6s1.6.72,1.6,1.6-.72,1.6-1.6,1.6h-3.84c-.28,0-.5.22-.5.5s.22.5.5.5h3.84c1.44,0,2.61-1.17,2.61-2.61s-1.17-2.61-2.61-2.61Z"/>
      </g>
      <g>
        <path class="cls-1" d="m3.18,9.04h-.54c.28,0,.5.22.5.5s-.22.5-.5.5h.54c.28,0,.5-.22.5-.5s-.22-.5-.5-.5Z"/>
        <path class="cls-1" d="m4.07,7h-.54c.28,0,.5.22.5.5s-.22.5-.5.5h.54c.28,0,.5-.22.5-.5s-.22-.5-.5-.5Z"/>
        <path class="cls-1" d="m15.47,7.92h-.54c.28,0,.5.22.5.5s-.22.5-.5.5h.54c.28,0,.5-.22.5-.5s-.22-.5-.5-.5Z"/>
        <g>
          <path class="cls-1" d="m9.4,11.63c0-.28-.22-.5-.5-.5-.1,0-.19.03-.27.08.14.09.23.24.23.42,0,.88.72,1.6,1.6,1.6.09,0,.18,0,.27-.02-.75-.13-1.33-.79-1.33-1.58Z"/>
          <path class="cls-1" d="m11,9.03h-.54c1.44,0,2.61,1.17,2.61,2.61,0,1.35-1.02,2.46-2.33,2.59.09,0,.18.01.27.01,1.44,0,2.61-1.17,2.61-2.61s-1.17-2.61-2.61-2.61Z"/>
        </g>
        <g>
          <path class="cls-1" d="m7.79,5.4c0,.18-.09.33-.23.42.08.05.17.08.27.08.28,0,.5-.22.5-.5,0-.79.58-1.45,1.33-1.58-.09-.02-.18-.02-.27-.02-.88,0-1.6.72-1.6,1.6Z"/>
          <path class="cls-1" d="m9.94,2.79c-.09,0-.18,0-.27.01,1.31.14,2.33,1.25,2.33,2.59,0,1.44-1.17,2.61-2.61,2.61h.54c1.44,0,2.61-1.17,2.61-2.61s-1.17-2.61-2.61-2.61Z"/>
        </g>
      </g>
    </g>
  </g>
</svg>