<?xml version="1.0" encoding="UTF-8"?>
<svg id="Layer_2" data-name="Layer 2" xmlns="http://www.w3.org/2000/svg" viewBox="0 0 17.85 15.88">
  <defs>
    <style>
      .cls-1 {
        fill: #fabe02;
      }

      .cls-2 {
        fill: #ff414d;
      }

      .cls-3 {
        fill: #d8283f;
      }

      .cls-4 {
        fill: #f59a1d;
      }

      .cls-5 {
        fill: #93134a;
      }
    </style>
  </defs>
  <g id="Layer_1-2" data-name="Layer 1">
    <g>
      <path class="cls-1" d="m8.86,3.54c-3.69,0-6.68,3.04-6.68,6.8h13.36c0-3.75-2.99-6.8-6.68-6.8Z"/>
      <path class="cls-4" d="m8.92,3.49c-.22,0-.43.01-.65.03,3.39.33,6.05,3.18,6.05,6.66h1.29c0-3.7-3-6.7-6.7-6.7Z"/>
      <path class="cls-2" d="m17.56,10.47H.29c-.16,0-.29-.13-.29-.29s.13-.29.29-.29h17.28c.16,0,.29.13.29.29s-.13.29-.29.29Z"/>
      <polygon class="cls-3" points="10.43 12.68 8.92 11.17 7.41 12.68 8.38 12.68 8.38 13.84 9.47 13.84 9.47 12.68 10.43 12.68"/>
      <g>
        <path class="cls-3" d="m14.44,14.13h-.57c-.16,0-.29-.13-.29-.29s.13-.29.29-.29h.57c.16,0,.29.13.29.29s-.13.29-.29.29Z"/>
        <path class="cls-3" d="m12.89,14.13H3.4c-.16,0-.29-.13-.29-.29s.13-.29.29-.29h9.48c.16,0,.29.13.29.29s-.13.29-.29.29Z"/>
      </g>
      <g>
        <path class="cls-5" d="m12.29,15.88h-4.66c-.16,0-.29-.13-.29-.29s.13-.29.29-.29h4.66c.16,0,.29.13.29.29s-.13.29-.29.29Z"/>
        <path class="cls-5" d="m6.47,15.88h-.91c-.16,0-.29-.13-.29-.29s.13-.29.29-.29h.91c.16,0,.29.13.29.29s-.13.29-.29.29Z"/>
      </g>
      <g>
        <g>
          <path class="cls-2" d="m16.51,12.3h-2.65c-.16,0-.29-.13-.29-.29s.13-.29.29-.29h2.65c.16,0,.29.13.29.29s-.13.29-.29.29Z"/>
          <path class="cls-2" d="m12.83,12.3h-1.43c-.16,0-.29-.13-.29-.29s.13-.29.29-.29h1.43c.16,0,.29.13.29.29s-.13.29-.29.29Z"/>
        </g>
        <g>
          <path class="cls-2" d="m6.57,12.3h-2.91c-.16,0-.29-.13-.29-.29s.13-.29.29-.29h2.91c.16,0,.29.13.29.29s-.13.29-.29.29Z"/>
          <path class="cls-2" d="m2.58,12.3h-1.24c-.16,0-.29-.13-.29-.29s.13-.29.29-.29h1.24c.16,0,.29.13.29.29s-.13.29-.29.29Z"/>
        </g>
      </g>
      <g>
        <path class="cls-1" d="m8.86,2.23c-.16,0-.28-.13-.28-.29V.29c0-.16.13-.29.28-.29s.28.13.28.29v1.65c0,.16-.13.29-.28.29Z"/>
        <path class="cls-1" d="m4.73,3.36c-.1,0-.19-.05-.25-.14l-.81-1.43c-.08-.14-.03-.32.1-.4.14-.08.31-.03.39.11l.81,1.43c.08.14.03.32-.1.4-.04.03-.09.04-.14.04Z"/>
        <path class="cls-1" d="m1.71,6.43s-.1-.01-.14-.04l-1.41-.83c-.14-.08-.18-.26-.1-.4.08-.14.25-.19.39-.11l1.41.83c.14.08.18.26.1.4-.05.09-.15.14-.25.14Z"/>
        <path class="cls-1" d="m16,6.43c-.1,0-.19-.05-.25-.14-.08-.14-.03-.32.1-.4l1.41-.83c.14-.08.31-.03.39.11.08.14.03.32-.1.4l-1.41.83s-.09.04-.14.04Z"/>
        <path class="cls-1" d="m12.98,3.36s-.1-.01-.14-.04c-.14-.08-.18-.26-.1-.4l.81-1.43c.08-.14.25-.19.39-.11.14.08.18.26.1.4l-.81,1.43c-.05.09-.15.14-.25.14Z"/>
      </g>
    </g>
  </g>
</svg>