<?xml version="1.0" encoding="UTF-8"?>
<svg id="Layer_2" data-name="Layer 2" xmlns="http://www.w3.org/2000/svg" viewBox="0 0 17.85 15.88">
  <defs>
    <style>
      .cls-1 {
        fill: #fabe02;
      }

      .cls-2 {
        fill: #ff414d;
      }

      .cls-3 {
        fill: #d8283f;
      }

      .cls-4 {
        fill: #f59a1d;
      }

      .cls-5 {
        fill: #93134a;
      }
    </style>
  </defs>
  <g id="Layer_1-2" data-name="Layer 1">
    <g>
      <path class="cls-1" d="m8.92,3.49c-3.7,0-6.7,3-6.7,6.7h13.39c0-3.7-3-6.7-6.7-6.7Z"/>
      <path class="cls-4" d="m8.92,3.49c-.22,0-.43.01-.65.03,3.39.33,6.05,3.18,6.05,6.66h1.29c0-3.7-3-6.7-6.7-6.7Z"/>
      <path class="cls-2" d="m17.56,10.47H.29c-.16,0-.29-.13-.29-.29s.13-.29.29-.29h17.28c.16,0,.29.13.29.29s-.13.29-.29.29Z"/>
      <polygon class="cls-2" points="7.41 13.18 8.92 14.69 10.43 13.18 9.47 13.18 9.47 12.01 8.38 12.01 8.38 13.18 7.41 13.18"/>
      <path class="cls-3" d="m3.97,14.13h-.57c-.16,0-.29-.13-.29-.29s.13-.29.29-.29h.57c.16,0,.29.13.29.29s-.13.29-.29.29Zm2.88-.29c0-.16-.13-.29-.29-.29h-1.61c-.16,0-.29.13-.29.29s.13.29.29.29h1.61c.16,0,.29-.13.29-.29Zm7.87,0c0-.16-.13-.29-.29-.29h-3.47c-.16,0-.29.13-.29.29s.13.29.29.29h3.47c.16,0,.29-.13.29-.29Z"/>
      <g>
        <path class="cls-5" d="m12.29,15.88h-4.66c-.16,0-.29-.13-.29-.29s.13-.29.29-.29h4.66c.16,0,.29.13.29.29s-.13.29-.29.29Z"/>
        <path class="cls-5" d="m6.47,15.88h-.91c-.16,0-.29-.13-.29-.29s.13-.29.29-.29h.91c.16,0,.29.13.29.29s-.13.29-.29.29Z"/>
      </g>
      <g>
        <g>
          <path class="cls-2" d="m16.51,12.3h-2.65c-.16,0-.29-.13-.29-.29s.13-.29.29-.29h2.65c.16,0,.29.13.29.29s-.13.29-.29.29Z"/>
          <path class="cls-2" d="m12.83,12.3h-1.04c-.16,0-.29-.13-.29-.29s.13-.29.29-.29h1.04c.16,0,.29.13.29.29s-.13.29-.29.29Z"/>
        </g>
        <g>
          <path class="cls-2" d="m10.61,12.3H3.66c-.16,0-.29-.13-.29-.29s.13-.29.29-.29h6.95c.16,0,.29.13.29.29s-.13.29-.29.29Z"/>
          <path class="cls-2" d="m2.58,12.3h-1.24c-.16,0-.29-.13-.29-.29s.13-.29.29-.29h1.24c.16,0,.29.13.29.29s-.13.29-.29.29Z"/>
        </g>
      </g>
      <g>
        <path class="cls-1" d="m8.92,2.2c-.16,0-.29-.13-.29-.29V.29c0-.16.13-.29.29-.29s.29.13.29.29v1.63c0,.16-.13.29-.29.29Z"/>
        <path class="cls-1" d="m4.79,3.31c-.1,0-.19-.05-.25-.14l-.81-1.41c-.08-.14-.03-.31.1-.39.14-.08.31-.03.39.1l.81,1.41c.08.14.03.31-.1.39-.04.03-.09.04-.14.04Z"/>
        <path class="cls-1" d="m1.76,6.33s-.1-.01-.14-.04l-1.41-.81c-.14-.08-.18-.25-.1-.39s.25-.18.39-.1l1.41.81c.14.08.18.25.1.39-.05.09-.15.14-.25.14Z"/>
        <path class="cls-1" d="m16.09,6.33c-.1,0-.19-.05-.25-.14-.08-.14-.03-.31.1-.39l1.41-.81c.14-.08.31-.03.39.1.08.14.03.31-.1.39l-1.41.81s-.09.04-.14.04Z"/>
        <path class="cls-1" d="m13.06,3.31s-.1-.01-.14-.04c-.14-.08-.18-.25-.1-.39l.81-1.41c.08-.14.25-.18.39-.1.14.08.18.25.1.39l-.81,1.41c-.05.09-.15.14-.25.14Z"/>
      </g>
    </g>
  </g>
</svg>