<?xml version="1.0" encoding="UTF-8"?>
<svg id="Layer_2" data-name="Layer 2" xmlns="http://www.w3.org/2000/svg" viewBox="0 0 17.83 18.09">
  <defs>
    <style>
      .cls-1 {
        fill: #168aa5;
      }

      .cls-2 {
        fill: #d9ecf2;
      }

      .cls-3 {
        fill: #bdd9e5;
      }

      .cls-4 {
        fill: #26a3b9;
      }

      .cls-5 {
        fill: #0162a7;
      }
    </style>
  </defs>
  <g id="Layer_1-2" data-name="Layer 1">
    <g>
      <path class="cls-4" d="m1.45,1.95c-.59,6.01,1.81,6.51,4.58,8.11,2.24,1.29,4.84,4.02,2.32,8.04,5.34-.8,8.34-5.28,7.11-8.54-1.26-3.35,1.41-4.34,1.73-7.6H1.45Z"/>
      <path class="cls-1" d="m11.52,9.12c-.68.09-1.15.73-1.04,1.4l-.49.49c-.11.11-.11.29,0,.4.06.06.13.08.2.08s.15-.03.2-.08l.49-.49c.67.11,1.31-.36,1.4-1.04l.12-.89-.89.12Z"/>
      <path class="cls-1" d="m17.19,1.95h-1.27c-.31,3.26-2.99,4.25-1.73,7.6,1.11,2.95-1.23,6.89-5.64,8.21-.06.11-.13.22-.2.33,5.34-.8,8.34-5.28,7.11-8.54-1.26-3.35,1.41-4.34,1.73-7.6Z"/>
      <path class="cls-2" d="m17.19,1.95c0,1.08-3.52,1.95-7.87,1.95S1.45,3.03,1.45,1.95s3.52-1.95,7.87-1.95,7.87.87,7.87,1.95Z"/>
      <path class="cls-3" d="m9.32,0c-.26,0-.52,0-.77,0,3.98.1,7.09.93,7.09,1.94s-3.11,1.84-7.09,1.94c.25,0,.51,0,.77,0,4.34,0,7.87-.87,7.87-1.95s-3.52-1.95-7.87-1.95Z"/>
      <path class="cls-3" d="m16.39,2.8c-.03-.06-.08-.11-.15-.14-1.46-.62-4.05-1-6.92-1s-5.47.37-6.92,1c-.07.03-.12.08-.15.14.19.09.41.19.65.27,1.42-.52,3.84-.84,6.42-.84s5,.32,6.42.84c.24-.09.46-.18.65-.27Z"/>
      <path class="cls-1" d="m9.32,7.64c-3.42,0-6-.45-7.45-.99.12.27.25.51.4.73,1.82.55,4.48.83,7.05.83,2.39,0,4.38-.22,5.82-.61.02-.22.05-.43.1-.64-1.27.39-3.22.68-5.92.68Z"/>
      <path class="cls-1" d="m11.59,16.24c-1.02-.08-1.78-.24-2.29-.43-.03.18-.08.37-.14.56.76.27,1.7.39,2.38.44.14.01.28.02.41.02.29-.17.57-.36.84-.56-.36,0-.76,0-1.21-.04Z"/>
      <path class="cls-1" d="m15.69,10.49c-1.11.55-2.74,1.11-4.67,1.5-.84.17-1.66.29-2.43.37.11.17.22.35.31.54.72-.08,1.47-.2,2.23-.36,1.79-.37,3.4-.88,4.6-1.44,0-.21-.01-.42-.04-.62Z"/>
      <path class="cls-1" d="m9.74,6.21c-.13,0-.21,0-.23,0-.16,0-.28-.13-.28-.29,0-.16.13-.28.29-.28.03,0,2.94.05,5.02-.56.15-.04.31.04.35.19.04.15-.04.31-.19.35-1.84.54-4.22.58-4.97.58Z"/>
      <path class="cls-1" d="m8,6.14s-.02,0-.03,0c-.75-.08-1.25-.17-1.27-.17-.16-.03-.26-.18-.23-.33.03-.16.17-.26.33-.23,0,0,.5.09,1.23.17.16.02.27.16.25.31-.02.15-.14.25-.28.25Z"/>
      <path class="cls-1" d="m10.37,14.11c-.15,0-.27-.11-.28-.26-.01-.16.1-.29.26-.31,2.28-.18,3.31-.74,3.32-.74.14-.08.31-.03.39.11.08.14.03.31-.11.39-.04.03-1.13.62-3.55.81,0,0-.02,0-.02,0Z"/>
      <g>
        <path class="cls-2" d="m10.23,10.55l-.06-.31c-.13-.68.34-1.34,1.03-1.43l.89-.12-.12.89c-.09.69-.75,1.16-1.43,1.03l-.31-.06Z"/>
        <path class="cls-3" d="m9.88,11.19c-.07,0-.15-.03-.2-.08-.11-.11-.11-.29,0-.4l.98-.98c.11-.11.29-.11.4,0,.11.11.11.29,0,.4l-.98.98c-.06.06-.13.08-.2.08Z"/>
      </g>
      <path class="cls-4" d="m6.2,15.66l-.28.14c-.62.32-1.38.05-1.66-.59l-.37-.82.89-.13c.69-.1,1.32.39,1.39,1.08l.03.32Z"/>
      <path class="cls-1" d="m6.64,16.18s-.09-.01-.14-.03l-1.21-.66c-.14-.08-.19-.25-.11-.39.08-.14.25-.19.39-.11l1.21.66c.14.08.19.25.11.39-.05.09-.15.15-.25.15Z"/>
      <path class="cls-4" d="m3.16,9.84l-.14.29c-.3.63-1.07.88-1.68.54l-.79-.43.62-.65c.48-.5,1.29-.5,1.76,0l.22.23Z"/>
      <path class="cls-2" d="m9.74,5.84c-.13,0-.21,0-.23,0-.16,0-.28-.13-.28-.29,0-.16.13-.28.29-.28.03,0,2.94.05,5.02-.56.15-.04.31.04.35.19.04.15-.04.31-.19.35-1.84.54-4.22.58-4.97.58Z"/>
      <path class="cls-2" d="m8,5.77s-.02,0-.03,0c-.75-.08-1.25-.17-1.27-.17-.16-.03-.26-.18-.23-.33.03-.16.17-.26.33-.23,0,0,.5.09,1.23.17.16.02.27.16.25.31-.02.15-.14.25-.28.25Z"/>
      <path class="cls-5" d="m9.32,7.84C4.8,7.84,0,6.95,0,5.31c0-.16.13-.29.29-.29s.29.13.29.29c0,.82,3.33,1.95,8.75,1.95s7.77-1.14,7.77-1.95c0-.16.13-.29.29-.29s.29.13.29.29c0,1.53-3.27,2.52-8.34,2.52Z"/>
      <path class="cls-2" d="m6.86,12.65c-.25,0-.49,0-.72-.02-1.54-.09-2.39-.46-2.52-1.1-.03-.15.07-.31.22-.34.15-.03.31.07.34.22.05.25.6.56,1.99.65,1.33.08,3.05-.08,4.85-.45,3.34-.68,5.77-1.86,6.18-2.6.08-.14.05-.21.04-.23-.18-.51-1.09-.47-1.1-.47-.16,0-.29-.11-.3-.27,0-.16.11-.29.27-.3.05,0,1.34-.07,1.67.84.06.15.09.4-.08.7-.57,1.02-3.27,2.2-6.57,2.88-1.53.31-3.02.48-4.27.48Z"/>
      <path class="cls-5" d="m12.56,16.48c-.31,0-.65-.01-1.02-.04-1.24-.09-3.36-.4-3.61-1.48-.03-.15.06-.31.21-.34.15-.03.31.06.34.21.09.41,1.08.89,3.09,1.04,2.2.16,3.33-.17,3.8-1.09.07-.14.24-.2.38-.13.14.07.2.24.13.38-.5.99-1.52,1.44-3.33,1.44Z"/>
      <path class="cls-5" d="m10.37,13.74c-.15,0-.27-.11-.28-.26-.01-.16.1-.29.26-.31,2.28-.18,3.31-.74,3.32-.74.14-.08.31-.03.39.11.08.14.03.31-.11.39-.04.03-1.13.62-3.55.81,0,0-.02,0-.02,0Z"/>
    </g>
  </g>
</svg>