<?xml version="1.0" encoding="UTF-8"?>
<svg id="Layer_2" data-name="Layer 2" xmlns="http://www.w3.org/2000/svg" viewBox="0 0 17.54 8.39">
  <defs>
    <style>
      .cls-1 {
        fill: #d9ecf2;
      }

      .cls-2 {
        fill: #bdd9e5;
      }
    </style>
  </defs>
  <g id="Layer_1-2" data-name="Layer 1">
    <g>
      <path class="cls-1" d="m15.77,4.23c.01-.11.02-.22.02-.33,0-1.45-1.18-2.63-2.63-2.63-.62,0-1.19.22-1.64.58-.75-1.11-2.03-1.85-3.47-1.85-1.96,0-3.6,1.34-4.06,3.15-.37-.18-.78-.28-1.21-.28-1.53,0-2.76,1.24-2.76,2.76s1.24,2.76,2.76,2.76h12.68c1.16,0,2.1-.94,2.1-2.1,0-1.05-.77-1.91-1.78-2.07Z"/>
      <g>
        <path class="cls-2" d="m15.77,4.23c.01-.11.02-.22.02-.33,0-1.45-1.18-2.63-2.63-2.63-.29,0-.57.05-.83.14,1.04.35,1.8,1.33,1.8,2.49,0,.11,0,.22-.02.33,1.01.16,1.78,1.02,1.78,2.07,0,1.16-.94,2.1-2.1,2.1h1.66c1.16,0,2.1-.94,2.1-2.1,0-1.05-.77-1.91-1.78-2.07Z"/>
        <path class="cls-2" d="m10.31,2.33c.34-.16.92-.39,1.21-.48-.14-.22-.38-.48-.44-.54-.76-.8-1.84-1.3-3.03-1.3-.28,0-.56.03-.83.08,1.09.22,2.47.84,3.09,2.25Z"/>
      </g>
      <path class="cls-2" d="m2.93,2.87c.18,1.43,1.12,2.31,1.12,2.31,0,0-.29-.88-.07-2.04-.32-.16-.68-.26-1.05-.28Z"/>
    </g>
  </g>
</svg>