<?xml version="1.0" encoding="UTF-8"?>
<svg id="Layer_2" data-name="Layer 2" xmlns="http://www.w3.org/2000/svg" viewBox="0 0 16.61 16.61">
  <defs>
    <style>
      .cls-1 {
        fill: #004584;
      }

      .cls-2 {
        fill: #d9ecf2;
      }

      .cls-3 {
        fill: #bdd9e5;
      }

      .cls-4 {
        fill: #0162a7;
      }
    </style>
  </defs>
  <g id="Layer_1-2" data-name="Layer 1">
    <g>
      <circle class="cls-4" cx="8.31" cy="8.31" r="8.31" transform="translate(-3.44 8.31) rotate(-45)"/>
      <path class="cls-1" d="m8.31,0c-.29,0-.57.01-.85.04,4.19.43,7.46,3.96,7.46,8.26s-3.27,7.84-7.46,8.26c.28.03.56.04.85.04,4.59,0,8.31-3.72,8.31-8.31S12.9,0,8.31,0Z"/>
      <g>
        <path class="cls-1" d="m2.47,10.04c.07,0,.15-.03.2-.08L11.77.87s.04-.05.06-.08c-.18-.08-.36-.16-.55-.23L2.27,9.56c-.11.11-.11.29,0,.4.06.06.13.08.2.08Z"/>
        <path class="cls-1" d="m13.98,2.24c-.14-.13-.28-.26-.43-.38L1.86,13.55c.12.15.25.29.38.43,0,0,0,0,.01,0L13.97,2.25s0,0,0-.01Z"/>
        <path class="cls-1" d="m16.41,7.96l-8.45,8.45c-.05.05-.08.12-.08.19.14,0,.29.01.43.01.09,0,.17,0,.26,0l8.04-8.04c0-.09,0-.17,0-.26,0-.14,0-.29-.01-.43-.07,0-.14.03-.19.08Z"/>
        <path class="cls-1" d="m16.26,10.71c.08-.27.15-.55.2-.83-.09-.02-.19,0-.26.08l-6.25,6.25c-.07.07-.1.17-.08.26.28-.05.56-.12.83-.2l5.55-5.55Z"/>
        <path class="cls-1" d="m1.44,12.98s.03-.02.04-.04L12.94,1.48s.03-.03.04-.04c-.16-.11-.32-.21-.49-.31L1.13,12.49c.1.17.2.33.31.49Z"/>
        <path class="cls-1" d="m16.49,6.89c-.04-.21-.08-.41-.13-.62-.05.01-.1.04-.14.08l-9.88,9.88s-.06.09-.08.14c.2.05.41.09.62.13l9.6-9.6Z"/>
        <path class="cls-1" d="m3.17,14.84L14.84,3.17c-.12-.15-.24-.3-.37-.44,0,0,0,0-.01.01L2.75,14.46s0,0-.01.01c.14.13.29.25.44.37Z"/>
        <path class="cls-1" d="m16.12,5.47c-.07-.19-.14-.37-.23-.55-.03.01-.06.03-.09.06L4.98,15.8s-.05.06-.06.09c.18.08.36.16.55.23l10.64-10.64Z"/>
        <path class="cls-1" d="m15.55,4.25c-.09-.17-.2-.33-.3-.5-.02.01-.03.02-.05.04L3.79,15.2s-.03.03-.04.05c.16.11.33.21.5.3L15.55,4.25Z"/>
      </g>
      <path class="cls-2" d="m5.57,8.31c0-3.61,2.31-6.68,5.52-7.83-.87-.31-1.81-.48-2.78-.48C3.72,0,0,3.72,0,8.31s3.72,8.31,8.31,8.31c.98,0,1.91-.17,2.78-.48-3.22-1.14-5.52-4.22-5.52-7.83Z"/>
      <path class="cls-3" d="m5.57,8.31c0-3.61,2.31-6.68,5.52-7.83-.87-.31-1.81-.48-2.78-.48-.16,0-.31,0-.47.01.81.04,1.59.2,2.32.47-3.22,1.14-5.52,4.22-5.52,7.83s2.31,6.68,5.52,7.83c-.73.26-1.51.42-2.32.47.16,0,.31.01.47.01.98,0,1.91-.17,2.78-.48-3.22-1.14-5.52-4.22-5.52-7.83Z"/>
      <path class="cls-3" d="m5.4,11.91c.32,0,.62-.08.89-.21-.47-1.04-.73-2.19-.73-3.4,0-.15,0-.3.01-.44-.06,0-.12,0-.18,0-1.12,0-2.03.91-2.03,2.03s.91,2.03,2.03,2.03Z"/>
      <path class="cls-3" d="m4.5,2.27c.71-.25,1.09-1.02.86-1.73-.85.32-1.64.78-2.33,1.35.36.4.93.56,1.47.38Z"/>
      <path class="cls-3" d="m.33,5.98h2.11c.36,0,.66-.3.66-.66s-.3-.66-.66-.66H.84c-.21.42-.38.86-.51,1.32Z"/>
      <path class="cls-3" d="m6.35,14.45c0-.36-.3-.66-.66-.66h-3.62c.44.5.93.94,1.47,1.32h2.15c.36,0,.66-.3.66-.66Z"/>
    </g>
  </g>
</svg>