<?xml version="1.0" encoding="UTF-8"?>
<svg id="Layer_2" data-name="Layer 2" xmlns="http://www.w3.org/2000/svg" viewBox="0 0 18.37 14.52">
  <defs>
    <style>
      .cls-1 {
        fill: #168aa5;
      }

      .cls-2 {
        fill: #d9ecf2;
      }

      .cls-3 {
        fill: #bdd9e5;
      }

      .cls-4 {
        fill: #26a3b9;
      }
    </style>
  </defs>
  <g id="Layer_1-2" data-name="Layer 1">
    <g>
      <g>
        <path class="cls-4" d="m9.81,8.18H1.88c-.28,0-.5-.22-.5-.5s.22-.5.5-.5h7.93c.28,0,.5.22.5.5s-.22.5-.5.5Z"/>
        <path class="cls-1" d="m13.64,8.18h-1.6c-.28,0-.5-.22-.5-.5s.22-.5.5-.5h1.6c.28,0,.5.22.5.5s-.22.5-.5.5Z"/>
        <path class="cls-4" d="m16.26,8.18h-.55c-.28,0-.5-.22-.5-.5s.22-.5.5-.5h.55c.28,0,.5.22.5.5s-.22.5-.5.5Z"/>
        <path class="cls-2" d="m10.66,12.61h-5.32c-.28,0-.5-.22-.5-.5s.22-.5.5-.5h5.32c.28,0,.5.22.5.5s-.22.5-.5.5Z"/>
        <path class="cls-2" d="m3.24,12.61H.5c-.28,0-.5-.22-.5-.5s.22-.5.5-.5h2.74c.28,0,.5.22.5.5s-.22.5-.5.5Z"/>
        <path class="cls-4" d="m13.33,6.05H.5c-.28,0-.5-.22-.5-.5s.22-.5.5-.5h12.83c1.11,0,2.02-.91,2.02-2.02s-.91-2.02-2.02-2.02-2.02.91-2.02,2.02c0,.28-.22.5-.5.5s-.5-.22-.5-.5c0-1.67,1.36-3.03,3.03-3.03s3.03,1.36,3.03,3.03-1.36,3.03-3.03,3.03Z"/>
        <path class="cls-4" d="m15.76,14.52c-1.44,0-2.61-1.17-2.61-2.61,0-.28.22-.5.5-.5s.5.22.5.5c0,.88.72,1.6,1.6,1.6s1.6-.72,1.6-1.6-.72-1.6-1.6-1.6H5.22c-.28,0-.5-.22-.5-.5s.22-.5.5-.5h10.53c1.44,0,2.61,1.17,2.61,2.61s-1.17,2.61-2.61,2.61Z"/>
      </g>
      <g>
        <path class="cls-1" d="m9.81,7.18h-.58c.28,0,.5.22.5.5s-.22.5-.5.5h.58c.28,0,.5-.22.5-.5s-.22-.5-.5-.5Z"/>
        <path class="cls-1" d="m16.26,7.18h-.55s-.01,0-.02,0c.27,0,.48.23.48.5s-.22.49-.48.5c0,0,.01,0,.02,0h.55c.28,0,.5-.22.5-.5s-.22-.5-.5-.5Z"/>
        <path class="cls-3" d="m10.66,11.6h-.58c.28,0,.5.22.5.5s-.22.5-.5.5h.58c.28,0,.5-.22.5-.5s-.22-.5-.5-.5Z"/>
        <path class="cls-3" d="m3.24,11.6h-.58c.28,0,.5.22.5.5s-.22.5-.5.5h.58c.28,0,.5-.22.5-.5s-.22-.5-.5-.5Z"/>
        <g>
          <path class="cls-1" d="m10.73,3.03c0,.17-.08.32-.21.41.08.06.18.1.29.1.28,0,.5-.22.5-.5,0-1.02.75-1.86,1.73-2-.1-.01-.19-.02-.29-.02-1.11,0-2.02.91-2.02,2.02Z"/>
          <path class="cls-1" d="m13.33,0c-.1,0-.2,0-.29.01,1.53.15,2.73,1.44,2.73,3.01,0,1.67-1.36,3.03-3.03,3.03h.58c1.67,0,3.03-1.36,3.03-3.03s-1.36-3.03-3.03-3.03Z"/>
        </g>
        <g>
          <path class="cls-1" d="m14.16,11.92c0-.28-.22-.5-.5-.5-.11,0-.21.04-.29.1.13.09.21.24.21.41,0,.88.72,1.6,1.6,1.6.1,0,.2-.01.29-.03-.74-.14-1.31-.79-1.31-1.57Z"/>
          <path class="cls-1" d="m15.76,9.31h-.58c1.44,0,2.61,1.17,2.61,2.61,0,1.34-1.01,2.44-2.31,2.59.1.01.19.02.29.02,1.44,0,2.61-1.17,2.61-2.61s-1.17-2.61-2.61-2.61Z"/>
        </g>
      </g>
    </g>
  </g>
</svg>