<?xml version="1.0" encoding="UTF-8"?>
<svg id="Layer_2" data-name="Layer 2" xmlns="http://www.w3.org/2000/svg" viewBox="0 0 18.24 14.57">
  <defs>
    <style>
      .cls-1 {
        fill: #168aa5;
      }

      .cls-2 {
        fill: #d9ecf2;
      }

      .cls-3 {
        fill: #bdd9e5;
      }

      .cls-4 {
        fill: #26a3b9;
      }
    </style>
  </defs>
  <g id="Layer_1-2" data-name="Layer 1">
    <g>
      <path class="cls-4" d="m3.59,13.5c0,.59-.48,1.07-1.07,1.07s-1.07-.48-1.07-1.07,1.07-2.14,1.07-2.14c0,0,1.07,1.55,1.07,2.14Z"/>
      <path class="cls-4" d="m7.21,9.98c0,.59-.48,1.07-1.07,1.07s-1.07-.48-1.07-1.07,1.07-2.14,1.07-2.14c0,0,1.07,1.55,1.07,2.14Z"/>
      <path class="cls-4" d="m10.19,13.5c0,.59-.48,1.07-1.07,1.07s-1.07-.48-1.07-1.07,1.07-2.14,1.07-2.14c0,0,1.07,1.55,1.07,2.14Z"/>
      <path class="cls-4" d="m13.81,9.98c0,.59-.48,1.07-1.07,1.07s-1.07-.48-1.07-1.07,1.07-2.14,1.07-2.14c0,0,1.07,1.55,1.07,2.14Z"/>
      <path class="cls-1" d="m5.13,9.65h2.01c-.23-.7-1-1.81-1-1.81,0,0-.77,1.11-1,1.81Z"/>
      <path class="cls-1" d="m13.75,9.65c-.23-.7-1-1.81-1-1.81,0,0-.77,1.11-1,1.81h2.01Z"/>
      <path class="cls-4" d="m16.8,13.5c0,.59-.48,1.07-1.07,1.07s-1.07-.48-1.07-1.07,1.07-2.14,1.07-2.14c0,0,1.07,1.55,1.07,2.14Z"/>
      <path class="cls-1" d="m2.52,11.36s-.1.15-.25.38c.32.5.82,1.36.82,1.76,0,.51-.35.93-.82,1.04.08.02.16.03.25.03.59,0,1.07-.48,1.07-1.07s-1.07-2.14-1.07-2.14Z"/>
      <path class="cls-1" d="m6.14,7.83s-.1.15-.25.38c.32.5.82,1.36.82,1.76,0,.51-.35.93-.82,1.04.08.02.16.03.25.03.59,0,1.07-.48,1.07-1.07s-1.07-2.14-1.07-2.14Z"/>
      <path class="cls-1" d="m9.12,11.36s-.1.15-.25.38c.32.5.82,1.36.82,1.76,0,.51-.35.93-.82,1.04.08.02.16.03.25.03.59,0,1.07-.48,1.07-1.07s-1.07-2.14-1.07-2.14Z"/>
      <path class="cls-1" d="m12.74,7.83s-.1.15-.25.38c.32.5.82,1.36.82,1.76,0,.51-.35.93-.82,1.04.08.02.16.03.25.03.59,0,1.07-.48,1.07-1.07s-1.07-2.14-1.07-2.14Z"/>
      <path class="cls-1" d="m15.73,11.36s-.1.15-.25.38c.32.5.82,1.36.82,1.76,0,.51-.35.93-.82,1.04.08.02.16.03.25.03.59,0,1.07-.48,1.07-1.07s-1.07-2.14-1.07-2.14Z"/>
      <path class="cls-2" d="m14.98,2.5c-.51,0-.98.12-1.41.32-.67-1.66-2.29-2.83-4.18-2.83-2,0-3.7,1.3-4.29,3.11-1.15,0-2.14.66-2.63,1.62-.1-.02-.21-.03-.32-.03-1.19,0-2.16.97-2.16,2.16s.97,2.16,2.16,2.16h12.83c1.8,0,3.26-1.46,3.26-3.26s-1.46-3.26-3.26-3.26Z"/>
      <g>
        <path class="cls-3" d="m12.47,3.27c.3-.25.78-.4,1.1-.45-.05-.14-.1-.23-.14-.31-.74-1.49-2.27-2.51-4.04-2.51-.22,0-.44.02-.65.05,1.61.24,3.22,1.59,3.73,3.22Z"/>
        <path class="cls-3" d="m14.98,2.5c-.22,0-.44.02-.65.07,1.48.31,2.6,1.62,2.6,3.19,0,1.8-1.46,3.26-3.26,3.26h1.31c1.8,0,3.26-1.46,3.26-3.26s-1.46-3.26-3.26-3.26Z"/>
      </g>
      <path class="cls-3" d="m4.22,3.25c.18,1.28,1.13,1.89,1.13,1.89,0,0-.65-.8-.25-2.03-.31,0-.61.05-.89.14Z"/>
      <path class="cls-3" d="m2.16,4.71c-.13,0-.26.01-.39.04.07.71.54,1.23.54,1.23,0,0-.1-.71.17-1.24-.1-.02-.21-.03-.32-.03Z"/>
    </g>
  </g>
</svg>