<?xml version="1.0" encoding="UTF-8"?>
<svg id="Layer_2" data-name="Layer 2" xmlns="http://www.w3.org/2000/svg" viewBox="0 0 18.64 16.33">
  <defs>
    <style>
      .cls-1 {
        fill: #168aa5;
      }

      .cls-2 {
        fill: #fabe02;
      }

      .cls-3 {
        fill: #d9ecf2;
      }

      .cls-4 {
        fill: #bdd9e5;
      }

      .cls-5 {
        fill: #26a3b9;
      }

      .cls-6 {
        fill: #f59a1d;
      }
    </style>
  </defs>
  <g id="Layer_1-2" data-name="Layer 1">
    <g>
      <g>
        <path class="cls-3" d="m13.14,11.44c3.04,0,5.5-2.46,5.5-5.5S16.18.43,13.14.43s-5.5,2.46-5.5,5.5,2.46,5.5,5.5,5.5Z"/>
        <path class="cls-4" d="m14.58,10.41c-.29,0-.56.05-.82.14,0-.12.02-.23.02-.35,0-2.41-1.96-4.37-4.37-4.37-.63,0-1.23.13-1.77.37.14,2.91,2.55,5.23,5.5,5.23.97,0,1.89-.25,2.68-.7-.37-.21-.79-.33-1.25-.33Z"/>
        <path class="cls-4" d="m13.14.43c-.28,0-.55.02-.82.06,2.65.4,4.69,2.68,4.69,5.44s-2.03,5.05-4.69,5.44c.27.04.54.06.82.06,3.04,0,5.5-2.46,5.5-5.5S16.18.43,13.14.43Z"/>
        <path class="cls-3" d="m11.83,8.44c0-.42.34-.75.75-.75s.75.34.75.75-.34.75-.75.75-.75-.34-.75-.75Z"/>
        <path class="cls-4" d="m9.04,9.61c.25-.17.41-.46.41-.79,0-.53-.43-.97-.97-.97-.17,0-.32.04-.46.12.24.61.59,1.16,1.02,1.64Z"/>
        <path class="cls-4" d="m13.72,4.89c0-.74.6-1.34,1.34-1.34s1.34.6,1.34,1.34-.6,1.34-1.34,1.34-1.34-.6-1.34-1.34Z"/>
        <path class="cls-4" d="m9.59,4.13c0-.42.34-.76.76-.76s.76.34.76.76-.34.76-.76.76-.76-.34-.76-.76Z"/>
        <path class="cls-4" d="m13,2.3h4.27c-.29-.33-.62-.62-.97-.87h-3.3c-.24,0-.44.2-.44.44s.2.44.44.44Z"/>
        <path class="cls-3" d="m17.27,2.3c-.22-.25-.45-.47-.71-.68h0c-.09-.07-.17-.13-.26-.2h0s-1.64,0-1.64,0c.36.25.69.55.98.87h1.63,0Z"/>
        <path class="cls-4" d="m18.42,7.47h-1.4c-.24,0-.44.2-.44.44s.2.44.44.44h1.06c.14-.28.25-.57.34-.87Z"/>
        <path class="cls-3" d="m17.02,7.47c-.1,0-.19.03-.26.09-.05.15-.1.3-.16.45.05.19.22.34.42.34h1.06c.07-.14.13-.28.18-.42,0,0,0-.01,0-.02.05-.14.1-.29.15-.44h0s-1.4,0-1.4,0Z"/>
        <path class="cls-4" d="m7.69,6.67h1.48c.24,0,.44-.2.44-.44s-.2-.44-.44-.44h-1.53s0,.09,0,.14c0,.25.02.5.05.74Z"/>
        <path class="cls-3" d="m9.61,6.23c0-.18-.11-.34-.27-.4-.6,0-1.17.14-1.69.37,0,.02,0,.05,0,.07,0,.02,0,.05,0,.07,0,.11.02.22.03.33,0,0,0,0,0,0h1.48c.24,0,.44-.2.44-.44Z"/>
      </g>
      <g>
        <path class="cls-5" d="m13.76,11.22c-.29,0-.56.05-.82.14,0-.12.02-.23.02-.35,0-2.41-1.96-4.37-4.37-4.37-1.96,0-3.62,1.29-4.17,3.07-.33-.1-.67-.16-1.03-.16-1.87,0-3.39,1.52-3.39,3.39s1.52,3.39,3.39,3.39h10.37c1.41,0,2.56-1.14,2.56-2.56s-1.14-2.56-2.56-2.56Z"/>
        <g>
          <path class="cls-1" d="m11.87,11.01s0,.02,0,.02c0,.26.23.46.49.42l.59-.09v-.12c.01-.08.02-.15.02-.23,0-2.41-1.96-4.37-4.37-4.37-.18,0-.36.01-.54.04,2.15.27,3.81,2.11,3.81,4.33h0Z"/>
          <path class="cls-1" d="m13.76,11.22c-.19,0-.37.02-.54.06,1.15.25,2,1.27,2,2.49,0,1.41-1.14,2.56-2.56,2.56h1.09c1.41,0,2.56-1.14,2.56-2.56s-1.14-2.56-2.56-2.56Z"/>
        </g>
      </g>
      <g>
        <polygon class="cls-2" points="2.56 6.91 1.46 7.48 1.67 6.26 .78 5.4 2.01 5.22 2.56 4.11 3.1 5.22 4.33 5.4 3.44 6.26 3.65 7.48 2.56 6.91"/>
        <polygon class="cls-6" points="4.33 5.4 3.1 5.22 2.56 4.11 2.58 5.22 3.31 5.66 2.56 6.44 3.65 7.48 3.44 6.26 4.33 5.4"/>
      </g>
      <g>
        <polygon class="cls-2" points="5.61 2.3 4.71 2.77 4.88 1.77 4.15 1.06 5.16 .91 5.61 0 6.06 .91 7.07 1.06 6.34 1.77 6.51 2.77 5.61 2.3"/>
        <polygon class="cls-6" points="7.07 1.06 6.06 .91 5.61 0 5.63 .91 6.23 1.28 5.61 1.91 6.51 2.77 6.34 1.77 7.07 1.06"/>
      </g>
    </g>
  </g>
</svg>