<?xml version="1.0" encoding="UTF-8"?>
<svg id="Layer_2" data-name="Layer 2" xmlns="http://www.w3.org/2000/svg" viewBox="0 0 18.42 17.03">
  <defs>
    <style>
      .cls-1 {
        fill: #fabe02;
      }

      .cls-2 {
        fill: #d9ecf2;
      }

      .cls-3 {
        fill: #bdd9e5;
      }

      .cls-4 {
        fill: #f59a1d;
      }
    </style>
  </defs>
  <g id="Layer_1-2" data-name="Layer 1">
    <circle class="cls-2" cx="8.75" cy="8.21" r="7.91"/>
    <path class="cls-3" d="m8.75.3c-.32,0-.63.02-.94.06,3.93.47,6.97,3.8,6.97,7.86s-3.04,7.39-6.97,7.86c.31.04.62.06.94.06,4.37,0,7.91-3.54,7.91-7.91S13.12.3,8.75.3Z"/>
    <circle class="cls-3" cx="7.95" cy="11.81" r="1.08"/>
    <path class="cls-3" d="m2.86,13.49c.36-.25.59-.66.59-1.13,0-.77-.62-1.39-1.39-1.39-.24,0-.46.06-.66.17.35.87.84,1.67,1.46,2.35Z"/>
    <circle class="cls-3" cx="11.52" cy="6.71" r="1.93"/>
    <path class="cls-3" d="m3.64,5.62c0-.6.49-1.09,1.09-1.09s1.09.49,1.09,1.09-.49,1.09-1.09,1.09-1.09-.49-1.09-1.09Z"/>
    <path class="cls-3" d="m7.93,2.36c0-.35.28-.63.63-.63h4.74c.52.36.99.78,1.4,1.26h-6.14c-.35,0-.63-.28-.63-.63Zm8.42,8.07h-2.01c-.35,0-.63.28-.63.63s.28.63.63.63h1.53c.2-.4.36-.82.49-1.26Z"/>
    <g>
      <path class="cls-2" d="m14.46,10.43c-.12.4-.27.79-.44,1.17.09.06.2.09.32.09h1.53c.04-.08.08-.16.11-.25.01-.02.02-.05.03-.07.04-.09.07-.17.11-.26,0-.02.02-.04.02-.06.04-.09.07-.19.1-.28,0-.01,0-.02.01-.03.03-.1.07-.2.1-.31h0s-1.89,0-1.89,0Z"/>
      <path class="cls-2" d="m11.4,1.74c.52.36.99.78,1.4,1.26h1.89c-.31-.35-.65-.68-1.02-.97h0c-.12-.1-.25-.19-.38-.28h0s-1.89,0-1.89,0Z"/>
    </g>
    <path class="cls-3" d="m.91,9.27h2.13c.35,0,.63-.28.63-.63s-.28-.63-.63-.63H.84c0,.07,0,.13,0,.2,0,.36.03.71.07,1.06Z"/>
    <g>
      <polygon class="cls-1" points="16.76 2.36 15.77 2.73 16.08 1.72 15.42 .9 16.47 .88 17.06 0 17.4 1 18.42 1.28 17.57 1.91 17.62 2.97 16.76 2.36"/>
      <polygon class="cls-4" points="17.06 0 16.99 1.24 17.48 1.5 16.87 1.89 17.62 2.97 17.57 1.91 18.42 1.28 17.4 1 17.06 0"/>
    </g>
    <g>
      <polygon class="cls-1" points="1.71 16.31 1.08 17.03 .89 16.09 0 15.72 .84 15.24 .92 14.28 1.63 14.93 2.57 14.71 2.17 15.59 2.67 16.41 1.71 16.31"/>
      <polygon class="cls-4" points=".92 14.28 1.34 15.35 1.9 15.28 1.63 15.85 2.67 16.41 2.17 15.59 2.57 14.71 1.63 14.93 .92 14.28"/>
    </g>
  </g>
</svg>