<?xml version="1.0" encoding="UTF-8"?>
<svg id="Layer_2" data-name="Layer 2" xmlns="http://www.w3.org/2000/svg" viewBox="0 0 9.87 18.25">
  <defs>
    <style>
      .cls-1 {
        fill: #fabe02;
      }

      .cls-2 {
        fill: #d9ecf2;
      }

      .cls-3 {
        fill: #bdd9e5;
      }

      .cls-4 {
        fill: #002d42;
      }

      .cls-5 {
        fill: #ff414d;
      }

      .cls-6 {
        fill: #d8283f;
      }

      .cls-7 {
        fill: #f59a1d;
      }
    </style>
  </defs>
  <g id="Layer_1-2" data-name="Layer 1">
    <g>
      <rect class="cls-2" width="9.87" height="18.25" rx="1.36" ry="1.36"/>
      <g>
        <path class="cls-3" d="m2.95,4.02h-.78c-.16,0-.29-.13-.29-.29s.13-.29.29-.29h.78c.16,0,.29.13.29.29s-.13.29-.29.29Z"/>
        <path class="cls-3" d="m2.95,5.27h-.78c-.16,0-.29-.13-.29-.29s.13-.29.29-.29h.78c.16,0,.29.13.29.29s-.13.29-.29.29Z"/>
        <path class="cls-3" d="m2.95,6.53h-.78c-.16,0-.29-.13-.29-.29s.13-.29.29-.29h.78c.16,0,.29.13.29.29s-.13.29-.29.29Z"/>
        <path class="cls-3" d="m2.95,7.78h-.78c-.16,0-.29-.13-.29-.29s.13-.29.29-.29h.78c.16,0,.29.13.29.29s-.13.29-.29.29Z"/>
        <path class="cls-3" d="m2.95,9.03h-.78c-.16,0-.29-.13-.29-.29s.13-.29.29-.29h.78c.16,0,.29.13.29.29s-.13.29-.29.29Z"/>
        <path class="cls-3" d="m2.95,10.28h-.78c-.16,0-.29-.13-.29-.29s.13-.29.29-.29h.78c.16,0,.29.13.29.29s-.13.29-.29.29Z"/>
        <path class="cls-3" d="m2.95,11.53h-.78c-.16,0-.29-.13-.29-.29s.13-.29.29-.29h.78c.16,0,.29.13.29.29s-.13.29-.29.29Z"/>
        <path class="cls-3" d="m2.95,12.79h-.78c-.16,0-.29-.13-.29-.29s.13-.29.29-.29h.78c.16,0,.29.13.29.29s-.13.29-.29.29Z"/>
      </g>
      <path class="cls-3" d="m8.51,0h-1.08c.75,0,1.36.61,1.36,1.36v15.53c0,.75-.61,1.36-1.36,1.36h1.08c.75,0,1.36-.61,1.36-1.36V1.36c0-.75-.61-1.36-1.36-1.36Z"/>
      <path class="cls-1" d="m6.12,13.26V3.93c0-.66-.53-1.19-1.19-1.19s-1.19.53-1.19,1.19v9.33c-.57.38-.94,1.03-.94,1.77,0,1.18.96,2.13,2.13,2.13s2.13-.96,2.13-2.13c0-.74-.37-1.39-.94-1.77Z"/>
      <path class="cls-7" d="m5.58,13.99V4.02c0-.16-.13-.29-.29-.29s-.29.13-.29.29v9.97c-.46.13-.8.54-.8,1.04,0,.6.48,1.08,1.08,1.08s1.08-.48,1.08-1.08c0-.5-.34-.92-.8-1.04Z"/>
      <path class="cls-7" d="m3.36,15.03c0-.74.37-1.39.94-1.77V3.93c0-.56.39-1.03.91-1.16-.09-.02-.18-.03-.28-.03-.66,0-1.19.53-1.19,1.19v9.33c-.57.38-.94,1.03-.94,1.77,0,1.18.96,2.13,2.13,2.13.09,0,.19,0,.28-.02-1.05-.14-1.85-1.03-1.85-2.11Z"/>
      <path class="cls-6" d="m4.93,15.31c-.16,0-.29-.13-.29-.29V4.02c0-.16.13-.29.29-.29s.29.13.29.29v11.01c0,.16-.13.29-.29.29Z"/>
      <circle class="cls-5" cx="4.93" cy="15.03" r="1.08"/>
      <path class="cls-6" d="m4.93,13.95c-.06,0-.12,0-.18.02.51.09.9.53.9,1.06s-.39.98-.9,1.06c.06.01.12.02.18.02.6,0,1.08-.48,1.08-1.08s-.48-1.08-1.08-1.08Z"/>
      <g>
        <path class="cls-4" d="m2.48,4.02h-.78c-.16,0-.29-.13-.29-.29s.13-.29.29-.29h.78c.16,0,.29.13.29.29s-.13.29-.29.29Z"/>
        <path class="cls-4" d="m2.48,5.27h-.78c-.16,0-.29-.13-.29-.29s.13-.29.29-.29h.78c.16,0,.29.13.29.29s-.13.29-.29.29Z"/>
        <path class="cls-4" d="m2.48,6.53h-.78c-.16,0-.29-.13-.29-.29s.13-.29.29-.29h.78c.16,0,.29.13.29.29s-.13.29-.29.29Z"/>
        <path class="cls-4" d="m2.48,7.78h-.78c-.16,0-.29-.13-.29-.29s.13-.29.29-.29h.78c.16,0,.29.13.29.29s-.13.29-.29.29Z"/>
        <path class="cls-4" d="m2.48,9.03h-.78c-.16,0-.29-.13-.29-.29s.13-.29.29-.29h.78c.16,0,.29.13.29.29s-.13.29-.29.29Z"/>
        <path class="cls-4" d="m2.48,10.28h-.78c-.16,0-.29-.13-.29-.29s.13-.29.29-.29h.78c.16,0,.29.13.29.29s-.13.29-.29.29Z"/>
        <path class="cls-4" d="m2.48,11.53h-.78c-.16,0-.29-.13-.29-.29s.13-.29.29-.29h.78c.16,0,.29.13.29.29s-.13.29-.29.29Z"/>
        <path class="cls-4" d="m2.48,12.79h-.78c-.16,0-.29-.13-.29-.29s.13-.29.29-.29h.78c.16,0,.29.13.29.29s-.13.29-.29.29Z"/>
      </g>
      <path class="cls-5" d="m8.58,3.74c0,.39-.32.71-.71.71s-.71-.32-.71-.71.32-.71.71-.71.71.32.71.71Z"/>
      <path class="cls-6" d="m7.87,3.03c-.08,0-.15.02-.22.04.28.09.48.36.48.67s-.2.57-.48.67c.07.02.14.04.22.04.39,0,.71-.32.71-.71s-.32-.71-.71-.71Z"/>
      <g>
        <path class="cls-4" d="m3.38,1.85l.52-.39c.16-.12.2-.2.2-.28,0-.1-.08-.16-.19-.16-.13,0-.23.06-.34.18l-.22-.22c.15-.18.33-.28.56-.28.32,0,.54.19.54.46,0,.19-.08.33-.32.5l-.22.16h.56v.31h-1.1v-.29Z"/>
        <path class="cls-4" d="m4.6,1.92l.2-.23c.1.1.23.15.37.15.14,0,.22-.06.22-.14,0-.09-.07-.13-.25-.13h-.17s0-.29,0-.29h.17c.14,0,.22-.05.22-.13,0-.09-.08-.14-.21-.14s-.23.06-.32.15l-.2-.21c.12-.14.29-.25.55-.25.33,0,.53.16.53.39,0,.16-.1.28-.26.32.16.04.29.15.29.33,0,.25-.22.42-.56.42-.26,0-.46-.1-.58-.24Z"/>
        <path class="cls-4" d="m5.85,1.14c0-.18.16-.32.34-.32s.34.15.34.32-.16.32-.34.32-.34-.15-.34-.32Zm.5,0c0-.08-.07-.15-.15-.15s-.15.07-.15.15.07.16.15.16.15-.07.15-.16Z"/>
      </g>
    </g>
  </g>
</svg>