<?xml version="1.0" encoding="UTF-8"?>
<svg id="Layer_2" data-name="Layer 2" xmlns="http://www.w3.org/2000/svg" viewBox="0 0 18.5 18.5">
  <defs>
    <style>
      .cls-1 {
        fill: #fabe02;
      }

      .cls-2 {
        fill: #f59a1d;
      }
    </style>
  </defs>
  <g id="Layer_1-2" data-name="Layer 1">
    <g>
      <circle class="cls-1" cx="9.25" cy="9.25" r="6.06"/>
      <path class="cls-2" d="m9.25,3.19c-.24,0-.48.02-.71.04,3.01.35,5.35,2.91,5.35,6.02s-2.34,5.67-5.35,6.02c.23.03.47.04.71.04,3.35,0,6.06-2.71,6.06-6.06s-2.71-6.06-6.06-6.06Z"/>
      <path class="cls-2" d="m5.68,12.25c-.09,0-.17-.04-.23-.11-.05-.07-.1-.13-.14-.2-.09-.13-.06-.31.07-.4.13-.09.31-.06.4.07.04.06.08.12.13.18.1.13.07.3-.05.4-.05.04-.11.06-.17.06Z"/>
      <path class="cls-2" d="m5.1,11.23c-.11,0-.22-.07-.26-.18-.23-.57-.35-1.18-.35-1.8,0-.16.13-.29.29-.29s.29.13.29.29c0,.55.1,1.08.31,1.59.06.15-.01.31-.16.37-.04.01-.07.02-.11.02Z"/>
      <path class="cls-1" d="m9.25,2.04c-.16,0-.29-.13-.29-.29V.29c0-.16.13-.29.29-.29s.29.13.29.29v1.47c0,.16-.13.29-.29.29Zm-3.6.97c.14-.08.18-.25.1-.39l-.74-1.28c-.08-.14-.25-.18-.39-.1-.14.08-.18.25-.1.39l.74,1.28c.05.09.15.14.25.14.05,0,.1-.01.14-.04Zm-2.64,2.64c.08-.14.03-.31-.1-.39l-1.28-.74c-.14-.08-.31-.03-.39.1-.08.14-.03.31.1.39l1.28.74s.09.04.14.04c.1,0,.19-.05.25-.14Zm12.87.1l1.28-.74c.14-.08.18-.25.1-.39-.08-.14-.25-.18-.39-.1l-1.28.74c-.14.08-.18.25-.1.39.05.09.15.14.25.14.05,0,.1-.01.14-.04Zm-2.64-2.85l.74-1.28c.08-.14.03-.31-.1-.39-.14-.08-.31-.03-.39.1l-.74,1.28c-.08.14-.03.31.1.39.04.03.09.04.14.04.1,0,.19-.05.25-.14Zm-3.71,15.31v-1.47c0-.16-.13-.29-.29-.29s-.29.13-.29.29v1.47c0,.16.13.29.29.29s.29-.13.29-.29Zm8.96-8.96c0-.16-.13-.29-.29-.29h-1.47c-.16,0-.29.13-.29.29s.13.29.29.29h1.47c.16,0,.29-.13.29-.29Zm-16.45,0c0-.16-.13-.29-.29-.29H.29c-.16,0-.29.13-.29.29s.13.29.29.29h1.47c.16,0,.29-.13.29-.29Zm11.83,8.01c.14-.08.18-.25.1-.39l-.74-1.28c-.08-.14-.25-.18-.39-.1-.14.08-.18.25-.1.39l.74,1.28c.05.09.15.14.25.14.05,0,.1-.01.14-.04Zm3.39-3.39c.08-.14.03-.31-.1-.39l-1.28-.74c-.14-.08-.31-.03-.39.1-.08.14-.03.31.1.39l1.28.74s.09.04.14.04c.1,0,.19-.05.25-.14Zm-15.63.1l1.28-.74c.14-.08.18-.25.1-.39-.08-.14-.25-.18-.39-.1l-1.28.74c-.14.08-.18.25-.1.39.05.09.15.14.25.14.05,0,.1-.01.14-.04Zm3.39,3.18l.74-1.28c.08-.14.03-.31-.1-.39-.14-.08-.31-.03-.39.1l-.74,1.28c-.08.14-.03.31.1.39.04.03.09.04.14.04.1,0,.19-.05.25-.14Z"/>
    </g>
  </g>
</svg>