<?xml version="1.0" encoding="UTF-8"?>
<svg id="Layer_2" data-name="Layer 2" xmlns="http://www.w3.org/2000/svg" viewBox="0 0 16.14 18.74">
  <defs>
    <style>
      .cls-1 {
        fill: #168aa5;
      }

      .cls-2 {
        fill: #fabe02;
      }

      .cls-3 {
        fill: #26a3b9;
      }

      .cls-4 {
        fill: #f59a1d;
      }
    </style>
  </defs>
  <g id="Layer_1-2" data-name="Layer 1">
    <g>
      <path class="cls-2" d="m3.4,3.4c-1.69,1.69-1.69,4.42,0,6.11s4.42,1.69,6.11,0,1.69-4.42,0-6.11c-1.69-1.69-4.42-1.69-6.11,0Z"/>
      <path class="cls-4" d="m9.51,9.51c.68-.68,1.09-1.53,1.22-2.42-.79-.91-1.96-1.48-3.26-1.48-2.17,0-3.96,1.6-4.28,3.68.07.07.13.15.2.22,1.69,1.69,4.42,1.69,6.11,0Z"/>
      <path class="cls-4" d="m9.51,3.4c-.98-.98-2.32-1.39-3.6-1.23.92.12,1.8.53,2.51,1.23,1.69,1.69,1.69,4.42,0,6.11-.7.7-1.59,1.11-2.51,1.23,1.28.16,2.62-.25,3.6-1.23,1.69-1.69,1.69-4.42,0-6.11Z"/>
      <path class="cls-2" d="m2.68,2.97c-.07,0-.15-.03-.2-.08l-.74-.74c-.11-.11-.11-.29,0-.4s.29-.11.4,0l.74.74c.11.11.11.29,0,.4-.06.06-.13.08-.2.08Zm-1.11,2.18c.04-.15-.05-.31-.2-.35l-1.01-.27c-.15-.04-.31.05-.35.2-.04.15.05.31.2.35l1.01.27s.05,0,.07,0c.13,0,.24-.08.28-.21Zm-1.22,3.24l1.01-.27c.15-.04.24-.2.2-.35-.04-.15-.2-.24-.35-.2l-1.01.27c-.15.04-.24.2-.2.35.03.13.15.21.28.21.02,0,.05,0,.07,0ZM8.12,1.37l.27-1.01c.04-.15-.05-.31-.2-.35-.15-.04-.31.05-.35.2l-.27,1.01c-.04.15.05.31.2.35.02,0,.05,0,.07,0,.13,0,.24-.08.28-.21Zm-2.97.2c.15-.04.24-.2.2-.35l-.27-1.01c-.04-.15-.2-.24-.35-.2-.15.04-.24.2-.2.35l.27,1.01c.03.13.15.21.28.21.02,0,.05,0,.07,0Zm6.03,9.6c.11-.11.11-.29,0-.4l-.74-.74c-.11-.11-.29-.11-.4,0-.11.11-.11.29,0,.4l.74.74c.06.06.13.08.2.08s.15-.03.2-.08Zm-.74-8.29l.74-.74c.11-.11.11-.29,0-.4s-.29-.11-.4,0l-.74.74c-.11.11-.11.29,0,.4.06.06.13.08.2.08s.15-.03.2-.08ZM2.14,11.18l.74-.74c.11-.11.11-.29,0-.4-.11-.11-.29-.11-.4,0l-.74.74c-.11.11-.11.29,0,.4.06.06.13.08.2.08s.15-.03.2-.08Zm10.77-2.99c.04-.15-.05-.31-.2-.35l-1.01-.27c-.15-.04-.31.05-.35.2-.04.15.05.31.2.35l1.01.27s.05,0,.07,0c.13,0,.24-.08.28-.21Zm-1.22-2.83l1.01-.27c.15-.04.24-.2.2-.35-.04-.15-.2-.24-.35-.2l-1.01.27c-.15.04-.24.2-.2.35.03.13.15.21.28.21.02,0,.05,0,.07,0Zm-6.61,7.35l.27-1.01c.04-.15-.05-.31-.2-.35-.15-.04-.31.05-.35.2l-.27,1.01c-.04.15.05.31.2.35.02,0,.05,0,.07,0,.13,0,.24-.08.28-.21Zm3.11.2c.15-.04.24-.2.2-.35l-.27-1.01c-.04-.15-.2-.24-.35-.2-.15.04-.24.2-.2.35l.27,1.01c.03.13.15.21.28.21.02,0,.05,0,.07,0Z"/>
      <path class="cls-3" d="m13.2,9.24c-.56,0-1.09.16-1.54.44-.49-1.85-2.18-3.22-4.19-3.22-2.21,0-4.04,1.66-4.3,3.8-.19-.05-.38-.07-.59-.07-1.36,0-2.47,1.1-2.47,2.47s1.1,2.47,2.47,2.47h10.6c1.62,0,2.94-1.32,2.94-2.94s-1.32-2.94-2.94-2.94Z"/>
      <g>
        <path class="cls-1" d="m13.2,9.24c-.22,0-.44.03-.65.07,1.31.29,2.3,1.47,2.3,2.87,0,1.62-1.32,2.94-2.94,2.94h1.29c1.62,0,2.94-1.32,2.94-2.94s-1.32-2.94-2.94-2.94Z"/>
        <path class="cls-1" d="m11.52,9.24c-.62-1.63-2.2-2.79-4.04-2.79-.22,0-.44.02-.65.05,1.65.24,3,1.5,3.49,3.06-.48,1.23.24,2.15.24,2.15,0,0,0-1.38,1.1-2.05-.04-.14-.08-.28-.13-.41,0,0,0-.01,0-.02Z"/>
      </g>
      <path class="cls-3" d="m5.96,17.84c0,.5-.41.91-.91.91s-.91-.41-.91-.91.91-1.81.91-1.81c0,0,.91,1.31.91,1.81Z"/>
      <path class="cls-3" d="m11.55,17.84c0,.5-.41.91-.91.91s-.91-.41-.91-.91.91-1.81.91-1.81c0,0,.91,1.31.91,1.81Z"/>
      <path class="cls-1" d="m5.06,16.03s-.12.18-.27.42c.27.43.63,1.07.63,1.39,0,.4-.27.75-.63.86.09.03.18.04.27.04.5,0,.91-.41.91-.91s-.91-1.81-.91-1.81Z"/>
      <path class="cls-1" d="m10.64,16.03s-.12.18-.27.42c.27.43.63,1.07.63,1.39,0,.4-.27.75-.63.86.09.03.18.04.27.04.5,0,.91-.41.91-.91s-.91-1.81-.91-1.81Z"/>
    </g>
  </g>
</svg>